<?xml version="1.0" encoding="UTF-8" standalone="no"?>
<svg
   viewBox="0 0 512 512"
   version="1.1"
   id="svg46"
   sodipodi:docname="erupt.svg"
   inkscape:version="1.1 (c4e8f9ed74, 2021-05-24)"
   width="128"
   height="128"
   xmlns:inkscape="http://www.inkscape.org/namespaces/inkscape"
   xmlns:sodipodi="http://sodipodi.sourceforge.net/DTD/sodipodi-0.dtd"
   xmlns="http://www.w3.org/2000/svg"
   xmlns:svg="http://www.w3.org/2000/svg"
   xmlns:rdf="http://www.w3.org/1999/02/22-rdf-syntax-ns#"
   xmlns:cc="http://creativecommons.org/ns#"
   xmlns:dc="http://purl.org/dc/elements/1.1/">
  <metadata
     id="metadata52">
    <rdf:RDF>
      <cc:Work
         rdf:about="">
        <dc:format>image/svg+xml</dc:format>
        <dc:type
           rdf:resource="http://purl.org/dc/dcmitype/StillImage" />
      </cc:Work>
    </rdf:RDF>
  </metadata>
  <defs
     id="defs50" />
  <sodipodi:namedview
     pagecolor="#ffffff"
     bordercolor="#666666"
     borderopacity="1"
     objecttolerance="10"
     gridtolerance="10"
     guidetolerance="10"
     inkscape:pageopacity="0"
     inkscape:pageshadow="2"
     inkscape:window-width="1920"
     inkscape:window-height="1011"
     id="namedview48"
     showgrid="false"
     inkscape:zoom="4"
     inkscape:cx="68.625001"
     inkscape:cy="55.75"
     inkscape:window-x="0"
     inkscape:window-y="1112"
     inkscape:window-maximized="1"
     inkscape:current-layer="svg46"
     inkscape:document-rotation="0"
     inkscape:pagecheckerboard="0"
     scale-x="4"
     fit-margin-top="0"
     fit-margin-left="0"
     fit-margin-right="0"
     fit-margin-bottom="0" />
  <path
     fill="#292f33"
     d="M 170.66667,512 V 227.55556 c 0,0 -16.64,14.976 -33.47911,27.43466 -4.45156,3.28534 -28.11734,11.23556 -32.88178,14.79111 -25.05956,18.70223 -36.29511,54.62756 -39.70845,59.264 C 58.06933,337.92 0,512 0,512 Z"
     id="path2"
     style="stroke-width:14.2222" />
  <path
     fill="#4b545d"
     d="M 455.11111,512 376.88889,259.55556 256,179.11467 164.15289,210.51733 c -5.78845,11.10756 -21.93067,49.03823 -21.93067,49.03823 L 124.44444,312.88889 0,512 Z"
     id="path4"
     style="stroke-width:14.2222" />
  <path
     fill="#292f33"
     d="m 257.92,365.88089 c -2.06222,-7.296 -0.36978,-13.79556 -2.51733,-20.992 -2.10489,-7.09689 -8.04978,-14.89067 -9.856,-21.02045 -3.76889,-12.78577 -6.45689,-22.51377 -6.32889,-25.20177 0.34133,-6.67023 12.71466,-5.70311 15.67289,6.67022 4.16711,17.408 9.78489,22.67022 9.78489,22.67022 0,0 1.19466,-48.08533 -8.98845,-57.856 2.06222,-3.28533 4.11022,-6.76978 5.94489,-10.58133 8.88889,-18.37511 9.18756,-29.92356 9.18756,-29.92356 0,0 -35.85423,43.53422 -45.824,69.02045 -9.96978,25.48622 14.22222,113.77777 14.22222,113.77777 L 182.32889,512 h 63.53067 c 0,0 -6.74134,-20.89244 -6.64178,-28.00356 0.0995,-7.11111 27.008,-52.45155 28.44444,-71.552 0.58311,-7.75111 -4.05333,-26.46755 -9.74222,-46.56355 z m 223.85778,0.34133 c -7.32445,-8.33422 -26.18311,-20.19555 -44.48711,-30.63466 0,0 -33.20889,-79.58756 -51.51289,-103.296 -18.304,-23.70845 -52.15289,-42.66667 -52.15289,-42.66667 l -37.632,21.03467 c 0,0 24.24889,20.56533 37.632,43.54844 13.38311,22.98311 9.79911,50.048 10.59555,55.58044 0.95289,6.64178 0.83912,13.83823 8.36267,25.01689 14.86222,22.08711 24.54756,21.91645 31.04711,32.36978 0.69689,2.06222 1.408,4.13867 2.13334,6.144 1.99111,5.47556 9.67111,9.32978 11.264,14.52089 2.48888,8.192 12.48711,32.48356 9.69955,43.94667 -1.50755,6.21511 -3.18578,21.632 -4.36622,28.64355 C 397.51111,489.48622 413.25511,512 413.25511,512 H 512 c 0,0 -14.22222,-127.55911 -30.22222,-145.77778 z"
     id="path6"
     style="stroke-width:14.2222" />
  <path
     fill="#ffac33"
     d="m 371.17156,316.52978 c -10.97956,-10.72356 -16.88178,-26.99378 -17.47912,-46.848 2.46045,-23.70845 -66.304,-70.016 -66.304,-70.016 L 260.15289,204.16 c 0,0 58.48178,23.90756 66.95822,63.33156 4.224,19.64088 -1.52178,46.52088 -2.95822,58.45333 -1.93422,15.91467 9.40089,25.14489 12.44444,40.27733 1.57867,7.82222 0.0996,24.09245 -1.99111,40.93156 -1.06666,8.56178 -4.94933,16.71111 -6.00178,24.54755 -2.73066,20.25245 -1.70666,35.15734 3.25689,25.77067 6.00178,-11.32089 9.28711,-27.33511 17.96267,-51.28533 4.16711,-11.52 4.42311,-24.78934 3.39911,-39.97867 -0.44089,-6.55644 1.57867,-14.35022 0.86756,-21.632 -0.72534,-7.50933 -4.18134,-14.50667 -4.736,-22.81244 -0.15645,-2.36089 0.42666,-10.496 1.30844,-20.53689 1.05245,0.17066 2.07645,0.768 3.072,2.44622 13.34045,22.21511 10.86578,43.02222 18.14756,36.70755 5.83111,-5.06311 7.01155,-16.29866 -0.71111,-23.85066 z"
     id="path8"
     style="stroke-width:14.2222" />
  <path
     fill="#292f33"
     d="m 124.72889,355.51289 c 0,0 -63.104,43.904 -79.68711,64.64 C 28.45867,440.88889 0,512 0,512 h 64 c 0,0 0.59733,-26.96533 -2.21867,-38.22933 -2.816,-11.264 4.43734,-34.91556 12.88534,-40.88889 20.15289,-14.22222 33.86311,-32.85334 35.84,-30.56356 7.40977,8.59022 7.40977,17.18045 7.40977,17.18045 0,0 7.09689,-19.59823 7.40978,-36.15289 0.31289,-16.55467 -0.59733,-27.83289 -0.59733,-27.83289 z"
     id="path10"
     style="stroke-width:14.2222" />
  <path
     fill="#ffac33"
     d="m 256,179.11467 c 0,0 -54.67022,-15.55911 -91.84711,17.77777 -16.93867,15.17512 -15.104,29.184 -21.93067,62.66312 -6.82666,33.47911 -26.46755,43.88977 -29.32622,57.18755 -5.632,26.06933 -26.33956,45.93778 -34.37511,58.368 C 73.856,382.336 67.74044,394.112 63.75822,400.73956 55.424,414.64889 49.33689,426.41067 48.59733,432.58311 46.81956,447.40267 74.66667,415.40267 74.66667,415.40267 L 121.32978,358.016 c -1.52178,32.72533 -13.14134,67.38489 -0.44089,64.19911 10.66667,-2.67378 19.38489,-16.15644 14.44978,-30.66311 -6.45689,-19.00089 -4.80711,-35.31378 -1.33689,-49.152 0.71111,-1.26578 32.02844,-56.98844 39.63733,-101.21956 7.70845,-44.74311 76.52978,-56.54755 76.52978,-56.54755 l 31.91467,12.25955 5.93066,-15.16088 z"
     id="path12"
     style="stroke-width:14.2222" />
  <path
     fill="#e95f28"
     d="m 397.55378,241.77778 c -18.88711,-24.88889 -46.73422,-52.40889 -60.21689,-56.71822 -11.70489,-3.74045 -6.08711,11.59111 -6.08711,11.59111 0,0 40.29155,17.57866 60.74311,95.80089 9.75644,37.33333 39.32444,52.77866 47.55911,76.00355 27.56267,77.78133 59.24978,91.91822 41.856,67.51289 -17.39378,-24.40533 -64.96711,-169.30133 -83.85422,-194.19022 z m -141.824,21.83111 c -1.536,-2.36089 -2.91556,-4.352 -4.18134,-6.21511 17.90578,-27.07911 39.12534,-57.38667 39.12534,-57.38667 0,0 -41.41511,-4.18133 -42.66667,0.44089 -12.44444,45.78133 -23.73689,60.27378 -32.88178,89.32978 -26.68089,84.736 17.20889,140.35911 24.09245,122.66666 5.51822,-14.22222 -3.00089,-53.27644 -9.55734,-76.416 -6.55644,-23.13955 -3.78311,-28.47288 -2.40355,-37.95911 0.48355,-3.31377 8.448,-16.39822 18.53155,-31.91466 1.26578,1.00977 2.44623,2.31822 3.456,4.12444 6.34312,11.37778 9.28712,32.14222 10.70934,46.23645 1.63555,16.19911 16.128,23.50933 24.12089,17.77777 7.99289,-5.73155 -2.67378,-34.44622 -20.05334,-52.992 -4.11022,-4.40889 -5.57511,-13.51111 -8.29155,-17.69244 z"
     id="path14"
     style="stroke-width:14.2222" />
  <path
     fill="#e95f28"
     d="m 340.89244,186.66667 c 0,0 8.448,16.44089 -23.25333,16.14222 -8.30578,-0.0711 -12.24533,7.28178 -23.11111,8.192 -9.04533,0.75378 -21.46133,-3.456 -31.70133,-3.456 -10.24,0 -22.04445,6.98311 -31.08978,6.22933 -10.89422,-0.91022 -23.59467,-11.86133 -31.72978,-13.63911 -15.104,-3.29955 -25.48622,-4.11022 -25.48622,-9.18755 0,-5.07734 17.16622,-11.22134 32.29867,-14.52089 8.12088,-1.77778 15.04711,4.05333 25.91288,3.14311 9.04534,-0.75378 18.36089,-1.43645 28.60089,-1.43645 10.24,0 20.12445,-6.12977 29.16978,-5.36177 10.89422,0.91022 19.95378,6.144 28.14578,7.60888 9.71378,1.74934 15.47378,3.47023 18.688,4.67912 2.63111,0.98133 3.55555,1.60711 3.55555,1.60711 z"
     id="path16"
     style="stroke-width:14.2222" />
  <path
     fill="#ffac33"
     d="m 363.10756,98.21867 c 0,0 -49.13778,-19.41334 -96.19912,-19.41334 -47.06133,0 -105.13066,26.82311 -105.13066,26.82311 46.22222,39.31023 44.35911,81.024 44.35911,81.024 h 109.34044 c 0,0.0142 16.52623,-57.62844 47.63023,-88.43377 z"
     id="path18"
     style="stroke-width:14.2222" />
  <path
     fill="#ffac33"
     d="m 315.47733,186.66667 c 0,0 -0.79644,2.98666 -5.68889,4.43733 -1.29422,0.384 -4.36622,-0.68267 -6.44266,0 -2.47467,0.81067 -6.912,2.85867 -9.11645,3.11467 -2.36089,0.28444 -7.76533,-1.33689 -10.43911,-1.10934 -4.89244,0.39823 -7.38133,2.26134 -13.11289,2.44623 -3.88266,0.11377 -5.70311,-1.39378 -9.856,-1.39378 -1.55022,0 -4.84977,-1.37956 -7.46666,-1.26578 -4.30934,0.17067 -8.29156,1.84889 -10.66667,1.77778 -6.44267,-0.19911 -7.75111,-3.072 -13.11289,-3.55556 -5.19111,-0.45511 -8.88889,2.00534 -12.672,1.33689 -7.13955,-1.26578 -10.752,-5.77422 -10.752,-5.77422 0,-4.13867 24.47645,-7.49511 54.67022,-7.49511 30.19378,0 54.656,7.48089 54.656,7.48089 z"
     id="path20"
     style="stroke-width:14.2222" />
  <path
     fill="#e95f28"
     d="m 243.84,194.58844 c 0,0 -0.99556,-8.17777 -4.28089,-19.44177 -8.74667,-29.96623 -8.448,-51.59823 -8.448,-51.59823 l -19.85422,9.48623 c 0,0 10.368,19.85422 18.56,58.21155 0,0 2.84444,0.0711 6.10133,1.83467 3.25689,1.76355 7.92178,1.50755 7.92178,1.50755 z m 24.14933,0.896 c 0.0569,-3.24266 0.14223,-10.16888 1.05245,-17.26577 0.896,-6.99734 4.56533,-23.85067 5.93066,-32.14223 2.31823,-14.15111 1.664,-24.12088 4.736,-29.62488 l -31.70133,1.18044 c 0,0 6.69867,13.24089 8.29156,29.04178 1.25155,12.31644 0.0142,31.84355 2.77333,47.31733 0,0 0.896,0.24178 2.11911,0.34133 0.61156,0.0427 1.99111,0.0427 2.73067,0.17067 2.23289,0.36978 4.06755,0.98133 4.06755,0.98133 z M 299.44889,192.64 c 0,0 6.57067,-20.69333 8.81778,-34.78756 3.65511,-22.94044 24.37689,-56.67555 29.952,-62.29333 l -40.22045,-1.33689 c 0,0 0.98134,30.02311 -0.82489,49.64978 -1.36533,14.83378 -8.50489,28.31644 -7.38133,49.82044 0,0 1.90578,0.71112 4.42311,0.52623 2.20445,-0.17067 5.23378,-1.57867 5.23378,-1.57867 z"
     id="path22"
     style="stroke-width:14.2222" />
  <path
     fill="#ccd6dd"
     d="m 432,28.99911 c -0.64,0 -1.25156,0.14222 -1.87733,0.18489 -2.74489,-6.34311 -9.03111,-10.80889 -16.39823,-10.80889 -3.34222,0 -6.30044,1.16622 -8.97422,2.75911 -6.37155,-10.24 -17.64978,-17.12355 -30.60622,-17.12355 -11.57689,0 -21.77422,5.54666 -28.38756,14.00889 -7.01155,-4.77867 -15.47377,-7.59467 -24.59022,-7.59467 -16.41244,0 -30.54933,9.15911 -38.03022,22.54222 -3.76889,-8.704 -12.43022,-14.80533 -22.51378,-14.80533 -7.82222,0 -14.72,3.74044 -19.21422,9.44355 C 235.86133,11.59111 220.8,0 202.89422,0 c -14.43555,0 -27.05066,7.50933 -34.33244,18.80178 -2.00534,-0.29867 -4.02489,-0.61156 -6.11556,-0.61156 -11.40622,0 -21.70311,4.69334 -29.12711,12.21689 -0.96711,-0.0711 -1.87733,-0.28444 -2.85867,-0.28444 -0.48355,0 -0.93866,0.128 -1.408,0.14222 -4.38044,-5.66045 -11.136,-9.344 -18.816,-9.344 -7.48088,0 -14.08,3.51289 -18.44622,8.90311 -2.41778,-0.71111 -4.93511,-1.19467 -7.59466,-1.19467 -15.07556,0 -27.30667,12.23111 -27.30667,27.32089 0,15.08978 12.23111,27.32089 27.32089,27.32089 0.78222,0 1.50755,-0.17067 2.27555,-0.22755 3.08623,3.85422 7.62311,6.48533 12.94223,6.48533 0.65422,0 1.20888,-0.29867 1.83466,-0.36978 6.72711,8.81778 17.23734,14.592 29.16978,14.592 2.70222,0 5.31911,-0.32711 7.85067,-0.88178 4.97777,3.95378 10.78044,6.89778 17.25155,8.192 9.15911,15.94311 26.15467,26.80889 45.85245,26.80889 18.64533,0 34.97244,-9.65689 44.44444,-24.192 7.85067,9.62845 19.65511,15.90045 33.03822,15.90045 19.79734,0 36.29511,-13.51111 41.20178,-31.75823 0.36978,0.0142 0.71111,0.11378 1.08089,0.11378 5.21956,0 10.15467,-1.06666 14.80533,-2.74489 7.33867,5.73156 16.45511,9.28711 26.496,9.28711 15.104,0 28.37334,-7.76533 36.11023,-19.48444 2.75911,1.97689 5.95911,3.38489 9.61422,3.38489 6.85511,0 12.70044,-4.13867 15.33155,-10.01245 2.67378,0.95289 5.504,1.56445 8.49067,1.56445 14.05156,0 25.44356,-11.392 25.44356,-25.44356 0,-14.05155 -11.392,-25.48622 -25.44356,-25.48622 z"
     id="path24"
     style="stroke-width:14.2222" />
  <circle
     fill="#aab8c2"
     cx="202.66667"
     cy="66.887115"
     r="28.785776"
     id="circle26"
     style="stroke-width:14.2222" />
  <circle
     fill="#aab8c2"
     cx="167.11111"
     cy="64.52623"
     r="28.458666"
     id="circle28"
     style="stroke-width:14.2222" />
  <circle
     fill="#aab8c2"
     cx="139.15024"
     cy="65.820435"
     r="15.786667"
     id="circle30"
     style="stroke-width:14.2222" />
  <circle
     fill="#aab8c2"
     cx="336.48355"
     cy="52.181335"
     r="15.786667"
     id="circle32"
     style="stroke-width:14.2222" />
  <circle
     fill="#aab8c2"
     cx="372.73602"
     cy="46.748444"
     r="21.262222"
     id="circle34"
     style="stroke-width:14.2222" />
  <circle
     fill="#aab8c2"
     cx="227.21422"
     cy="60.629333"
     r="23.210667"
     id="circle36"
     style="stroke-width:14.2222" />
  <circle
     fill="#aab8c2"
     cx="363.44888"
     cy="59.207108"
     r="25.372444"
     id="circle38"
     style="stroke-width:14.2222" />
  <circle
     fill="#aab8c2"
     cx="247.76532"
     cy="68.849777"
     r="21.788445"
     id="circle40"
     style="stroke-width:14.2222" />
  <circle
     fill="#aab8c2"
     cx="201.99823"
     cy="50.218658"
     r="24.177778"
     id="circle42"
     style="stroke-width:14.2222" />
  <circle
     fill="#aab8c2"
     cx="201.4151"
     cy="75.007996"
     r="40.675552"
     id="circle44"
     style="stroke-width:14.2222" />
  <g
     aria-label="erupt"
     transform="matrix(13.200728,0,0,13.200728,18.18506,8.13505)"
     id="text56"
     style="font-size:10.6667px;line-height:1.25;font-family:Hack;-inkscape-font-specification:Hack;text-align:center;text-anchor:middle;white-space:pre;inline-size:35.9937">
    <path
       d="m 5.4794526,35.928226 q -1.3489626,0 -2.1197983,-0.807295 -0.7656275,-0.812502 -0.7656275,-2.213548 0,-0.869795 0.3020843,-1.572922 0.3072927,-0.703127 0.9062529,-1.114587 0.6041686,-0.416668 1.489588,-0.416668 1.1666704,0 1.8072974,0.750003 0.6458354,0.744794 0.6458354,2.067715 v 0.468751 H 3.59403 v 0.03125 q 0,0.911461 0.4791682,1.45313 0.4791682,0.541668 1.4166711,0.541668 0.5416684,0 1.0468783,-0.171875 0.5104183,-0.171876 0.9843781,-0.416668 v 0.953128 q -0.4947932,0.203125 -1.0052115,0.322917 -0.5052099,0.125001 -1.0364616,0.125001 z m 1.3072958,-3.588553 q 0,-0.484377 -0.1458338,-0.875003 -0.1458338,-0.390626 -0.4687515,-0.619794 -0.3177093,-0.229167 -0.8437526,-0.229167 -0.5312517,0 -0.8906278,0.234376 -0.3541678,0.229167 -0.5572935,0.619793 -0.1979173,0.390626 -0.2500007,0.869795 z"
       style="font-size:10.6667px;fill:#ffffff"
       id="path33" />
    <path
       d="m 9.9430086,29.943832 h 0.8697944 l 0.09375,1.140628 q 0.244793,-0.619793 0.734378,-0.947919 0.494793,-0.333335 1.182295,-0.333335 0.718752,0 1.250004,0.364585 v 0.97917 q -0.562502,-0.458335 -1.333338,-0.458335 -0.885419,0 -1.359379,0.56771 -0.47396,0.562502 -0.47396,1.619797 v 2.901051 H 9.9430086 Z"
       style="font-size:10.6667px;fill:#ffffff"
       id="path35" />
    <path
       d="m 17.583658,35.928226 q -1.776047,0 -1.776047,-2.359383 v -3.614595 h 0.958336 v 3.614595 q 0,1.526047 1.140629,1.526047 0.666668,0 1.031253,-0.479168 0.364584,-0.484377 0.364584,-1.364588 v -3.296886 h 0.963545 v 5.822936 h -0.869794 l -0.09375,-0.875003 q -0.520835,1.026045 -1.718755,1.026045 z"
       style="font-size:10.6667px;fill:#ffffff"
       id="path37" />
    <path
       d="m 22.203464,29.943832 h 0.869794 l 0.09375,0.744794 q 0.500001,-0.88542 1.567713,-0.88542 1.046878,0 1.645838,0.817711 0.604169,0.817711 0.604169,2.234382 0,1.427088 -0.609377,2.250007 -0.604168,0.82292 -1.64063,0.82292 -1.093753,0 -1.567713,-0.88542 v 2.953135 h -0.963545 z m 2.406258,5.171891 q 1.369796,0 1.369796,-2.250007 0,-2.250007 -1.369796,-2.250007 -0.703128,0 -1.07292,0.583335 -0.369793,0.583335 -0.369793,1.661464 0,1.083336 0.369793,1.67188 0.375001,0.583335 1.07292,0.583335 z"
       style="font-size:10.6667px;fill:#ffffff"
       id="path39" />
    <path
       d="m 31.838912,35.798017 q -1.07292,0 -1.520838,-0.432293 -0.44271,-0.437501 -0.44271,-1.489588 v -3.18751 h -1.557297 v -0.744794 h 1.557297 V 28.417785 L 30.8337,28.001117 v 1.942715 h 2.17709 v 0.744794 H 30.8337 v 3.18751 q 0,0.640627 0.244793,0.901044 0.244792,0.25521 0.854169,0.25521 h 1.078128 v 0.765627 z"
       style="font-size:10.6667px;fill:#ffffff"
       id="path41" />
  </g>
</svg>
