<?xml version="1.0" encoding="UTF-8"?>
<svg height="128px" viewBox="0 0 128 128" width="128px" xmlns="http://www.w3.org/2000/svg" xmlns:xlink="http://www.w3.org/1999/xlink">
    <linearGradient id="a" gradientUnits="userSpaceOnUse" x1="12" x2="116" y1="47.972872" y2="47.972872">
        <stop offset="0" stop-color="#63452c"/>
        <stop offset="0.042" stop-color="#916640"/>
        <stop offset="0.097" stop-color="#63452c"/>
        <stop offset="0.921" stop-color="#63452c"/>
        <stop offset="0.974" stop-color="#916640"/>
        <stop offset="1" stop-color="#63452c"/>
    </linearGradient>
    <clipPath id="b">
        <path d="m 20 24 h 30 v 30 h -30 z m 0 0"/>
    </clipPath>
    <clipPath id="c">
        <path d="m 21.914062 18 h 84.171876 c 1.058593 0 1.914062 1.121094 1.914062 2.5 v 75.027344 c 0 1.378906 -0.855469 2.5 -1.914062 2.5 h -84.171876 c -1.058593 0 -1.914062 -1.121094 -1.914062 -2.5 v -75.027344 c 0 -1.378906 0.855469 -2.5 1.914062 -2.5 z m 0 0"/>
    </clipPath>
    <clipPath id="d">
        <path d="m 20 53 h 30 v 31 h -30 z m 0 0"/>
    </clipPath>
    <clipPath id="e">
        <path d="m 21.914062 18 h 84.171876 c 1.058593 0 1.914062 1.121094 1.914062 2.5 v 75.027344 c 0 1.378906 -0.855469 2.5 -1.914062 2.5 h -84.171876 c -1.058593 0 -1.914062 -1.121094 -1.914062 -2.5 v -75.027344 c 0 -1.378906 0.855469 -2.5 1.914062 -2.5 z m 0 0"/>
    </clipPath>
    <clipPath id="f">
        <path d="m 20 83 h 30 v 16 h -30 z m 0 0"/>
    </clipPath>
    <clipPath id="g">
        <path d="m 21.914062 18 h 84.171876 c 1.058593 0 1.914062 1.121094 1.914062 2.5 v 75.027344 c 0 1.378906 -0.855469 2.5 -1.914062 2.5 h -84.171876 c -1.058593 0 -1.914062 -1.121094 -1.914062 -2.5 v -75.027344 c 0 -1.378906 0.855469 -2.5 1.914062 -2.5 z m 0 0"/>
    </clipPath>
    <clipPath id="h">
        <path d="m 49 83 h 30 v 16 h -30 z m 0 0"/>
    </clipPath>
    <clipPath id="i">
        <path d="m 21.914062 18 h 84.171876 c 1.058593 0 1.914062 1.121094 1.914062 2.5 v 75.027344 c 0 1.378906 -0.855469 2.5 -1.914062 2.5 h -84.171876 c -1.058593 0 -1.914062 -1.121094 -1.914062 -2.5 v -75.027344 c 0 -1.378906 0.855469 -2.5 1.914062 -2.5 z m 0 0"/>
    </clipPath>
    <clipPath id="j">
        <path d="m 49 53 h 30 v 31 h -30 z m 0 0"/>
    </clipPath>
    <clipPath id="k">
        <path d="m 21.914062 18 h 84.171876 c 1.058593 0 1.914062 1.121094 1.914062 2.5 v 75.027344 c 0 1.378906 -0.855469 2.5 -1.914062 2.5 h -84.171876 c -1.058593 0 -1.914062 -1.121094 -1.914062 -2.5 v -75.027344 c 0 -1.378906 0.855469 -2.5 1.914062 -2.5 z m 0 0"/>
    </clipPath>
    <clipPath id="l">
        <path d="m 49 24 h 30 v 30 h -30 z m 0 0"/>
    </clipPath>
    <clipPath id="m">
        <path d="m 21.914062 18 h 84.171876 c 1.058593 0 1.914062 1.121094 1.914062 2.5 v 75.027344 c 0 1.378906 -0.855469 2.5 -1.914062 2.5 h -84.171876 c -1.058593 0 -1.914062 -1.121094 -1.914062 -2.5 v -75.027344 c 0 -1.378906 0.855469 -2.5 1.914062 -2.5 z m 0 0"/>
    </clipPath>
    <clipPath id="n">
        <path d="m 78 83 h 30 v 16 h -30 z m 0 0"/>
    </clipPath>
    <clipPath id="o">
        <path d="m 21.914062 18 h 84.171876 c 1.058593 0 1.914062 1.121094 1.914062 2.5 v 75.027344 c 0 1.378906 -0.855469 2.5 -1.914062 2.5 h -84.171876 c -1.058593 0 -1.914062 -1.121094 -1.914062 -2.5 v -75.027344 c 0 -1.378906 0.855469 -2.5 1.914062 -2.5 z m 0 0"/>
    </clipPath>
    <clipPath id="p">
        <path d="m 78 53 h 30 v 31 h -30 z m 0 0"/>
    </clipPath>
    <clipPath id="q">
        <path d="m 21.914062 18 h 84.171876 c 1.058593 0 1.914062 1.121094 1.914062 2.5 v 75.027344 c 0 1.378906 -0.855469 2.5 -1.914062 2.5 h -84.171876 c -1.058593 0 -1.914062 -1.121094 -1.914062 -2.5 v -75.027344 c 0 -1.378906 0.855469 -2.5 1.914062 -2.5 z m 0 0"/>
    </clipPath>
    <clipPath id="r">
        <path d="m 78 24 h 30 v 30 h -30 z m 0 0"/>
    </clipPath>
    <clipPath id="s">
        <path d="m 21.914062 18 h 84.171876 c 1.058593 0 1.914062 1.121094 1.914062 2.5 v 75.027344 c 0 1.378906 -0.855469 2.5 -1.914062 2.5 h -84.171876 c -1.058593 0 -1.914062 -1.121094 -1.914062 -2.5 v -75.027344 c 0 -1.378906 0.855469 -2.5 1.914062 -2.5 z m 0 0"/>
    </clipPath>
    <linearGradient id="t" gradientTransform="matrix(0.707348 0.706865 -0.706865 0.707348 269.184801 -60.312592)" gradientUnits="userSpaceOnUse" x1="-67.481155" x2="-42.481155" y1="219.305527" y2="219.305527">
        <stop offset="0" stop-color="#1c71d8"/>
        <stop offset="1" stop-color="#2e80e7"/>
    </linearGradient>
    <clipPath id="u">
        <path d="m 58 44 h 29 v 29 h -29 z m 0 0"/>
    </clipPath>
    <clipPath id="v">
        <path d="m 74.660156 44.695312 l 11.828125 11.820313 l -15.921875 15.933594 l -11.832031 -11.824219 z m 0 0"/>
    </clipPath>
    <linearGradient id="w" gradientTransform="matrix(0.573311 0.572861 -0.675137 0.675539 254.359843 -60.248485)" gradientUnits="userSpaceOnUse" x1="-65.299454" x2="-44.662857" y1="222.512695" y2="222.512695">
        <stop offset="0" stop-color="#18529c"/>
        <stop offset="1" stop-color="#1a5fb4"/>
    </linearGradient>
    <path d="m 20.722656 12 h 86.554688 c 4.816406 0 8.722656 3.90625 8.722656 8.722656 v 86.554688 c 0 4.816406 -3.90625 8.722656 -8.722656 8.722656 h -86.554688 c -4.816406 0 -8.722656 -3.90625 -8.722656 -8.722656 v -86.554688 c 0 -4.816406 3.90625 -8.722656 8.722656 -8.722656 z m 0 0" fill="url(#a)"/>
    <path d="m 20 12 h 88 c 4.417969 0 8 4.335938 8 9.6875 v 72.652344 c 0 5.351562 -3.582031 9.6875 -8 9.6875 h -88 c -4.417969 0 -8 -4.335938 -8 -9.6875 v -72.652344 c 0 -5.351562 3.582031 -9.6875 8 -9.6875 z m 0 0" fill="#865e3c"/>
    <path d="m 20 18 h 88 c 1.105469 0 2 1.121094 2 2.5 v 75.027344 c 0 1.378906 -0.894531 2.5 -2 2.5 h -88 c -1.105469 0 -2 -1.121094 -2 -2.5 v -75.027344 c 0 -1.378906 0.894531 -2.5 2 -2.5 z m 0 0" fill="#63452c"/>
    <g clip-path="url(#b)">
        <g clip-path="url(#c)">
            <path d="m 20 24.347656 h 29.332031 v 29.332032 h -29.332031 z m 0 0" fill="#e5a50a"/>
        </g>
    </g>
    <g clip-path="url(#d)">
        <g clip-path="url(#e)">
            <path d="m 20 53.679688 h 29.332031 v 29.332031 h -29.332031 z m 0 0" fill="#f9f06b"/>
        </g>
    </g>
    <g clip-path="url(#f)">
        <g clip-path="url(#g)">
            <path d="m 20 83.011719 h 29.332031 v 29.335937 h -29.332031 z m 0 0" fill="#f6d32d"/>
        </g>
    </g>
    <g clip-path="url(#h)">
        <g clip-path="url(#i)">
            <path d="m 49.332031 83.011719 h 29.335938 v 29.335937 h -29.335938 z m 0 0" fill="#f5c211"/>
        </g>
    </g>
    <g clip-path="url(#j)">
        <g clip-path="url(#k)">
            <path d="m 49.332031 53.679688 h 29.335938 v 29.332031 h -29.335938 z m 0 0" fill="#f6d32d"/>
        </g>
    </g>
    <g clip-path="url(#l)">
        <g clip-path="url(#m)">
            <path d="m 49.332031 24.347656 h 29.335938 v 29.332032 h -29.335938 z m 0 0" fill="#f9f06b"/>
        </g>
    </g>
    <g clip-path="url(#n)">
        <g clip-path="url(#o)">
            <path d="m 78.667969 83.011719 h 29.332031 v 29.335937 h -29.332031 z m 0 0" fill="#f9f06b"/>
        </g>
    </g>
    <g clip-path="url(#p)">
        <g clip-path="url(#q)">
            <path d="m 78.667969 53.679688 h 29.332031 v 29.332031 h -29.332031 z m 0 0" fill="#e5a50a"/>
        </g>
    </g>
    <g clip-path="url(#r)">
        <g clip-path="url(#s)" fill="#f6d32d">
            <path d="m 78.667969 24.347656 h 29.332031 v 29.332032 h -29.332031 z m 0 0"/>
            <path d="m 78.667969 24.347656 h 29.332031 v 29.332032 h -29.332031 z m 0 0"/>
        </g>
    </g>
    <path d="m 120.621094 24.289062 l -12.164063 -12.152343 c -1.144531 -1.148438 -2.621093 -1.515625 -3.3125 -0.828125 l -0.050781 -0.050782 c -3.546875 3.546876 -4.414062 8.96875 -2.152344 13.445313 c -0.359375 0.109375 -0.703125 0.292969 -0.988281 0.578125 l -18.058594 18.074219 l -3.605469 -3.601563 c -1.371093 -1.371094 -3.574218 -1.371094 -4.945312 0 l -16.257812 16.269532 c -1.371094 1.371093 -1.371094 3.582031 0 4.949218 l 12.730468 12.726563 c 1.371094 1.371093 3.582032 1.371093 4.953125 -0.003907 l 16.257813 -16.265624 c 1.367187 -1.375 1.367187 -3.582032 -0.003906 -4.953126 l -3.605469 -3.597656 l 18.0625 -18.074218 c 0.28125 -0.285157 0.46875 -0.621094 0.578125 -0.980469 c 4.476562 2.269531 9.902344 1.402343 13.453125 -2.148438 l -0.0625 -0.0625 v -0.003906 c 0.691406 -0.691406 0.320312 -2.171875 -0.828125 -3.320313 z m -13.203125 -6.0625 l 7.125 7.125 c -1.96875 1.96875 -5.160157 1.96875 -7.125 0 c -1.96875 -1.964843 -1.96875 -5.15625 0 -7.125 z m 0 0" fill="#1a5fb4"/>
    <path d="m 119.839844 23.511719 l -12.164063 -12.15625 c -1.144531 -1.144531 -2.625 -1.515625 -3.316406 -0.828125 l -0.046875 -0.046875 c -3.546875 3.542969 -4.414062 8.964843 -2.15625 13.441406 c -0.359375 0.109375 -0.699219 0.292969 -0.984375 0.582031 l -18.058594 18.070313 l -3.605469 -3.601563 c -1.371093 -1.367187 -3.578124 -1.367187 -4.949218 0.003906 l -16.257813 16.269532 c -1.367187 1.371094 -1.371093 3.578125 0 4.949218 l 12.734375 12.722657 c 1.371094 1.371093 3.582032 1.371093 4.949219 0 l 16.257813 -16.269531 c 1.371093 -1.371094 1.371093 -3.578126 0 -4.949219 l -3.605469 -3.601563 l 18.0625 -18.074218 c 0.28125 -0.28125 0.46875 -0.621094 0.574219 -0.976563 c 4.480468 2.265625 9.90625 1.398437 13.457031 -2.148437 l -0.066407 -0.066407 h 0.003907 c 0.691406 -0.691406 0.320312 -2.171875 -0.828125 -3.320312 z m -13.207032 -6.0625 l 7.128907 7.125 c -1.96875 1.96875 -5.160157 1.96875 -7.128907 0 c -1.964843 -1.96875 -1.964843 -5.160157 0 -7.125 z m 0 0" fill="url(#t)"/>
    <g clip-path="url(#u)">
        <g clip-path="url(#v)">
            <path d="m 79.746094 41.117188 l 10.316406 10.308593 c 1.109375 1.109375 0.949219 3.066407 -0.355469 4.371094 l -15.527343 15.535156 c -1.304688 1.308594 -3.261719 1.46875 -4.371094 0.359375 l -10.316406 -10.308594 c -1.109376 -1.109374 -0.949219 -3.066406 0.355468 -4.371093 l 15.527344 -15.535157 c 1.304688 -1.308593 3.261719 -1.46875 4.371094 -0.359374 z m 0 0" fill="url(#w)"/>
        </g>
    </g>
    <path d="m 102.273438 26.609375 l 0.65625 0.652344 c 0.273437 0.273437 0.273437 0.710937 0 0.984375 l -15.90625 15.917968 c -0.269532 0.269532 -0.710938 0.269532 -0.980469 0 l -0.65625 -0.65625 c -0.273438 -0.269531 -0.273438 -0.710937 0 -0.980468 l 15.90625 -15.917969 c 0.269531 -0.273437 0.710937 -0.273437 0.980469 0 z m 0 0" fill="#3584e4"/>
    <path d="m 52.234375 57.507812 s 8.039063 -4.277343 13.207031 4.476563 c 5.640625 9.554687 12.089844 8.269531 10.070313 15.097656 c -2.015625 6.828125 -23.277344 -19.574219 -23.277344 -19.574219 z m 0 0" fill="#f6d32d"/>
</svg>
