<?xml version="1.0" encoding="UTF-8" standalone="no"?>
<svg
   xmlns:dc="http://purl.org/dc/elements/1.1/"
   xmlns:cc="http://creativecommons.org/ns#"
   xmlns:rdf="http://www.w3.org/1999/02/22-rdf-syntax-ns#"
   xmlns:svg="http://www.w3.org/2000/svg"
   xmlns="http://www.w3.org/2000/svg"
   xmlns:xlink="http://www.w3.org/1999/xlink"
   xmlns:sodipodi="http://sodipodi.sourceforge.net/DTD/sodipodi-0.dtd"
   xmlns:inkscape="http://www.inkscape.org/namespaces/inkscape"
   width="161.33586mm"
   height="71.258186mm"
   viewBox="0 0 161.33585 71.258186"
   version="1.1"
   id="svg8"
   inkscape:version="1.0.1 (3bc2e813f5, 2020-09-07)"
   sodipodi:docname="supported_platforms.svg">
  <defs
     id="defs2">
    <linearGradient
       inkscape:collect="always"
       id="linearGradient1582">
      <stop
         style="stop-color:#ffffff;stop-opacity:1"
         offset="0"
         id="stop1578" />
      <stop
         style="stop-color:#dbd4d6;stop-opacity:1"
         offset="1"
         id="stop1580" />
    </linearGradient>
    <inkscape:path-effect
       effect="fillet_chamfer"
       id="path-effect1576"
       is_visible="true"
       lpeversion="1"
       satellites_param="F,0,0,1,0,13.49375,0,1 @ F,0,0,1,0,13.49375,0,1 @ F,0,0,1,0,13.49375,0,1 @ F,0,0,1,0,13.49375,0,1"
       unit="px"
       method="auto"
       mode="F"
       radius="51"
       chamfer_steps="1"
       flexible="false"
       use_knot_distance="true"
       apply_no_radius="true"
       apply_with_radius="true"
       only_selected="false"
       hide_knots="false" />
    <linearGradient
       inkscape:collect="always"
       id="linearGradient979">
      <stop
         style="stop-color:#fff2f2;stop-opacity:0.63921571"
         offset="0"
         id="stop975" />
      <stop
         style="stop-color:#ffffff;stop-opacity:1"
         offset="1"
         id="stop977" />
    </linearGradient>
    <radialGradient
       inkscape:collect="always"
       xlink:href="#linearGradient979"
       id="radialGradient2024"
       cx="215.31351"
       cy="351.99017"
       fx="215.31351"
       fy="351.99017"
       r="67.870117"
       gradientTransform="matrix(5.1674115,0,0,1.200564,-897.3,-60.889673)"
       gradientUnits="userSpaceOnUse" />
    <linearGradient
       inkscape:collect="always"
       xlink:href="#linearGradient1582"
       id="linearGradient1584"
       x1="116.57099"
       y1="131.5011"
       x2="122.50213"
       y2="57.706669"
       gradientUnits="userSpaceOnUse" />
  </defs>
  <sodipodi:namedview
     id="base"
     pagecolor="#ffffff"
     bordercolor="#666666"
     borderopacity="1.0"
     inkscape:pageopacity="0"
     inkscape:pageshadow="2"
     inkscape:zoom="0.82024693"
     inkscape:cx="370.18759"
     inkscape:cy="-30.635251"
     inkscape:document-units="mm"
     inkscape:current-layer="layer1"
     inkscape:document-rotation="0"
     showgrid="false"
     inkscape:window-width="2560"
     inkscape:window-height="1361"
     inkscape:window-x="-9"
     inkscape:window-y="-9"
     inkscape:window-maximized="1"
     fit-margin-top="0"
     fit-margin-left="0"
     fit-margin-right="0"
     fit-margin-bottom="0"
     lock-margins="true" />
  <metadata
     id="metadata5">
    <rdf:RDF>
      <cc:Work
         rdf:about="">
        <dc:format>image/svg+xml</dc:format>
        <dc:type
           rdf:resource="http://purl.org/dc/dcmitype/StillImage" />
        <dc:title></dc:title>
      </cc:Work>
    </rdf:RDF>
  </metadata>
  <g
     inkscape:label="Ebene 1"
     inkscape:groupmode="layer"
     id="layer1"
     transform="translate(-25.130714,-67.5616)">
    <path
       style="fill:url(#linearGradient1584);fill-opacity:1;stroke:none;stroke-width:0.740273;stroke-linecap:square;stroke-linejoin:round;stroke-miterlimit:4;stroke-dasharray:none;stroke-opacity:0.862661;paint-order:markers stroke fill"
       id="rect1574"
       width="161.33586"
       height="71.258186"
       x="25.130714"
       y="67.5616"
       sodipodi:type="rect"
       d="M 38.624464,67.5616 H 172.97283 a 13.49375,13.49375 45 0 1 13.49375,13.49375 l 0,44.27069 a 13.49375,13.49375 135 0 1 -13.49375,13.49375 H 38.624464 a 13.49375,13.49375 45 0 1 -13.49375,-13.49375 l 0,-44.27069 A 13.49375,13.49375 135 0 1 38.624464,67.5616 Z"
       inkscape:path-effect="#path-effect1576" />
    <g
       inkscape:label="Ebene 1"
       id="layer1-5"
       transform="translate(4.5369409,-18.701034)"
       style="stroke:none;stroke-width:0.493889;stroke-miterlimit:4;stroke-dasharray:none;stroke-opacity:1;paint-order:markers stroke fill">
      <flowRoot
         style="font-style:normal;font-weight:normal;font-size:40px;line-height:25px;font-family:sans-serif;letter-spacing:0px;word-spacing:0px;fill:#000000;fill-opacity:1;stroke:none;stroke-width:0.246308;stroke-miterlimit:4;stroke-dasharray:none;stroke-opacity:1;paint-order:markers stroke fill"
         id="flowRoot38"
         xml:space="preserve"
         transform="matrix(2.0051674,0,0,2.0051674,42.142186,-378.70454)"><flowRegion
           id="flowRegion40"
           style="stroke:none;stroke-width:0.246308;stroke-miterlimit:4;stroke-dasharray:none;stroke-opacity:1;paint-order:markers stroke fill"><rect
             y="51.42857"
             x="261.42856"
             height="40"
             width="2.1428571"
             id="rect42"
             style="stroke:none;stroke-opacity:1;paint-order:markers stroke fill;stroke-width:0.24630806;stroke-miterlimit:4;stroke-dasharray:none" /></flowRegion><flowPara
           id="flowPara44" /></flowRoot>
      <g
         id="g881-8-1"
         transform="matrix(0.42949307,0,0,0.42949307,7.9827898,84.125175)"
         style="stroke:none;stroke-width:1.14993;stroke-miterlimit:4;stroke-dasharray:none;stroke-opacity:1;paint-order:markers stroke fill">
        <g
           id="g887-1-5"
           transform="matrix(0.13663542,0,0,0.13663542,72.026645,26.294406)"
           style="stroke:none;stroke-width:8.41608;stroke-miterlimit:4;stroke-dasharray:none;stroke-opacity:1;paint-order:markers stroke fill">
          <path
             id="path873-4"
             style="fill:#322931;fill-opacity:1;stroke:none;stroke-width:2.86488;stroke-miterlimit:4;stroke-dasharray:none;stroke-opacity:0.748927;paint-order:markers stroke fill"
             d="M 147.08984,360.63672 V 496.37695 H 282.83008 V 360.63672 h -43.55274 a 24.385474,25.346212 0 0 1 -24.38281,24.98047 24.385474,25.346212 0 0 1 -24.38281,-24.98047 z"
             transform="matrix(4.5086137,0,0,4.5086137,-663.17492,-1625.9712)" />
        </g>
        <path
           id="path4634-0-8"
           style="font-style:normal;font-variant:normal;font-weight:900;font-stretch:normal;font-size:192px;line-height:25px;font-family:Roboto;-inkscape-font-specification:'Roboto Heavy';letter-spacing:0px;word-spacing:0px;mix-blend-mode:normal;fill:url(#radialGradient2024);fill-opacity:1;fill-rule:nonzero;stroke:none;stroke-width:1.86667;stroke-miterlimit:4;stroke-dasharray:none;stroke-opacity:1;paint-order:markers stroke fill"
           d="m 147.08984,360.63672 39.06641,76.1914 h -4.94922 l -0.31641,2.47852 c -1.67041,-2.0045 -3.99131,-3.00586 -6.96289,-3.00586 -2.35616,0 -4.42135,0.60511 -6.19726,1.81836 -1.77592,1.19566 -3.1384,2.90169 -4.08789,5.11719 -0.9495,2.2155 -1.42578,4.76477 -1.42578,7.64844 v 0.3164 c 0,4.46616 1.07358,8.03632 3.21875,10.70899 2.14516,2.65508 4.95795,3.98242 8.43945,3.98242 2.60233,0 4.75731,-0.94086 6.46289,-2.82227 v 0.89649 c 0,4.04415 -1.96954,6.0664 -5.9082,6.0664 -2.70783,0 -4.88819,-0.97599 -6.54102,-2.92773 l -3.71875,5.22265 c 1.03742,1.26601 2.53068,2.29469 4.48242,3.08594 1.96933,0.79125 4.00134,1.1875 6.09375,1.1875 2.91883,0 5.48568,-0.50165 7.70118,-1.5039 2.21549,-0.98467 3.90395,-2.40962 5.06445,-4.27344 1.17808,-1.84626 1.76562,-4.02661 1.76562,-6.54102 v -21.36718 l 12.35743,24.10156 h 7.98437 l 6.21484,-13.41797 h 0.1504 l 5.80664,13.41797 h 7.83789 l 10.55273,-21.09961 c -0.36326,1.52801 -0.54687,3.18316 -0.54687,4.9668 v 0.3164 c 0,4.46616 1.07358,8.03632 3.21875,10.70899 2.14515,2.65508 4.95794,3.98242 8.43945,3.98242 2.60232,0 4.75536,-0.94086 6.46094,-2.82227 v 0.89649 c 0,4.04415 -1.96759,6.0664 -5.90625,6.0664 -2.70783,0 -4.88819,-0.97599 -6.54102,-2.92773 l -3.71875,5.22265 c 1.03742,1.26601 2.53068,2.29469 4.48242,3.08594 1.96933,0.79125 4.00133,1.1875 6.09375,1.1875 2.91883,0 5.48568,-0.50165 7.70117,-1.5039 2.2155,-0.98467 3.90396,-2.40962 5.06446,-4.27344 1.17808,-1.84626 1.76562,-4.02661 1.76562,-6.54102 V 436.82812 H 258.625 l -0.31641,2.47852 c -1.67041,-2.0045 -3.9913,-3.00586 -6.96289,-3.00586 -2.35616,0 -4.42135,0.60511 -6.19726,1.81836 -0.68941,0.46415 -1.316,1.00717 -1.88086,1.625 l 39.5625,-79.10742 H 239.2793 a 24.385474,25.346212 0 0 1 -24.38282,24.97851 24.385474,25.346212 0 0 1 -24.38281,-24.97851 z m 29.10547,82.52148 c 1.899,0 3.281,0.65 4.14258,1.95118 v 12 c -0.87917,1.28358 -2.27873,1.92578 -4.19531,1.92578 -1.5825,0 -2.81224,-0.67734 -3.69141,-2.03125 -0.87916,-1.3715 -1.31836,-3.22588 -1.31836,-5.56446 0,-2.69024 0.447,-4.73982 1.34375,-6.14648 0.89675,-1.42425 2.13625,-2.13477 3.71875,-2.13477 z m 77.41797,0 c 1.89899,0 3.27904,0.65 4.14063,1.95118 v 12 c -0.87916,1.28358 -2.27678,1.92578 -4.19336,1.92578 -1.58251,0 -2.81225,-0.67734 -3.69141,-2.03125 -0.87917,-1.3715 -1.31836,-3.22588 -1.31836,-5.56446 0,-2.69024 0.447,-4.73982 1.34375,-6.14648 0.89674,-1.42425 2.13625,-2.13477 3.71875,-2.13477 z"
           transform="matrix(0.61603633,0,0,0.61603633,-18.586539,-195.87086)" />
      </g>
      <g
         id="g881-4-0-3"
         transform="matrix(0.42949307,0,0,0.42949307,7.9826398,84.125174)"
         style="stroke:none;stroke-width:1.14993;stroke-miterlimit:4;stroke-dasharray:none;stroke-opacity:1;paint-order:markers stroke fill">
        <g
           id="g887-6-0-6"
           transform="matrix(0.13663542,0,0,0.13663542,72.026645,26.294406)"
           style="stroke:none;stroke-width:8.41608;stroke-miterlimit:4;stroke-dasharray:none;stroke-opacity:1;paint-order:markers stroke fill" />
      </g>
      <g
         id="g881-4-0-3-6"
         transform="matrix(0.42949307,0,0,0.42949307,61.359942,84.125148)"
         style="stroke:none;stroke-width:1.14993;stroke-miterlimit:4;stroke-dasharray:none;stroke-opacity:1;paint-order:markers stroke fill">
        <g
           id="g887-6-0-6-3"
           transform="matrix(0.13663542,0,0,0.13663542,72.026645,26.294406)"
           style="stroke:none;stroke-width:8.41608;stroke-miterlimit:4;stroke-dasharray:none;stroke-opacity:1;paint-order:markers stroke fill" />
      </g>
    </g>
    <g
       id="g1103"
       transform="matrix(0.80782299,0,0,0.80782299,114.42047,83.510966)"
       style="stroke:none;stroke-width:0;stroke-miterlimit:4;stroke-dasharray:none;stroke-opacity:1;paint-order:markers stroke fill">
      <g
         transform="translate(4.9638004,1.1055788)"
         id="layer2"
         style="stroke:none;stroke-width:0;stroke-miterlimit:4;stroke-dasharray:none;stroke-opacity:1;paint-order:markers stroke fill">
        <rect
           ry="6.7657094"
           y="-1.1055788"
           x="-4.9638004"
           height="29.104166"
           width="77.535233"
           id="rect4647"
           style="fill:#322931;fill-opacity:1;stroke:none;stroke-width:0.938324;stroke-miterlimit:4;stroke-dasharray:none;stroke-opacity:0.748927;paint-order:markers stroke fill" />
      </g>
      <g
         transform="translate(4.9638004,-269.43601)"
         id="layer1-53"
         style="stroke:none;stroke-width:0;stroke-miterlimit:4;stroke-dasharray:none;stroke-opacity:1;paint-order:markers stroke fill">
        <g
           id="flowRoot10"
           style="font-style:normal;font-weight:normal;font-size:40px;line-height:25px;font-family:sans-serif;letter-spacing:0px;word-spacing:0px;fill:#ffffff;fill-opacity:0.941176;stroke:none;stroke-width:0;stroke-miterlimit:4;stroke-dasharray:none;stroke-opacity:1;paint-order:markers stroke fill"
           transform="matrix(0.10303608,0,0,0.10303608,-6.2835754,268.62714)"
           aria-label="ggez">
          <path
             id="path4632"
             style="font-style:normal;font-variant:normal;font-weight:900;font-stretch:normal;font-size:192px;font-family:Roboto;-inkscape-font-specification:'Roboto Heavy';fill:#ffffff;fill-opacity:0.941176;fill-rule:nonzero;stroke:none;stroke-width:0;stroke-miterlimit:4;stroke-dasharray:none;stroke-opacity:1;paint-order:markers stroke fill"
             d="m 64.441406,132.60352 q 0,-15.375 5.0625,-27.1875 5.0625,-11.812505 14.53125,-18.187505 9.46875,-6.46875 22.031254,-6.46875 15.84375,0 24.75,10.6875 l 1.125,-8.8125 h 28.6875 v 97.593755 q 0,13.40625 -6.28125,23.25 -6.1875,9.9375 -18,15.1875 -11.8125,5.34375 -27.375,5.34375 -11.156254,0 -21.656254,-4.21875 -10.40625,-4.21875 -15.9375,-10.96875 l 13.21875,-18.5625 q 8.8125,10.40625 23.250004,10.40625 21,0 21,-21.5625 v -3.1875 q -9.09375,10.03125 -22.96875,10.03125 -18.562504,0 -30.000004,-14.15625 -11.4375,-14.25 -11.4375,-38.0625 z m 31.6875,1.96875 q 0,12.46875 4.687504,19.78125 4.6875,7.21875 13.125,7.21875 10.21875,0 14.90625,-6.84375 v -42.65625 q -4.59375,-6.9375 -14.71875,-6.9375 -8.4375,0 -13.21875,7.59375 -4.781254,7.5 -4.781254,21.84375 z" />
          <path
             id="path4634"
             style="font-style:normal;font-variant:normal;font-weight:900;font-stretch:normal;font-size:192px;font-family:Roboto;-inkscape-font-specification:'Roboto Heavy';fill:#ffffff;fill-opacity:0.941176;fill-rule:nonzero;stroke:none;stroke-width:0;stroke-miterlimit:4;stroke-dasharray:none;stroke-opacity:1;paint-order:markers stroke fill"
             d="m 175.06641,132.60352 q 0,-15.375 5.0625,-27.1875 5.0625,-11.812505 14.53125,-18.187505 9.46875,-6.46875 22.03125,-6.46875 15.84375,0 24.75,10.6875 l 1.125,-8.8125 h 28.6875 v 97.593755 q 0,13.40625 -6.28125,23.25 -6.1875,9.9375 -18,15.1875 -11.8125,5.34375 -27.375,5.34375 -11.15625,0 -21.65625,-4.21875 -10.40625,-4.21875 -15.9375,-10.96875 l 13.21875,-18.5625 q 8.8125,10.40625 23.25,10.40625 21,0 21,-21.5625 v -3.1875 q -9.09375,10.03125 -22.96875,10.03125 -18.5625,0 -30,-14.15625 -11.4375,-14.25 -11.4375,-38.0625 z m 31.6875,1.96875 q 0,12.46875 4.6875,19.78125 4.6875,7.21875 13.125,7.21875 10.21875,0 14.90625,-6.84375 v -42.65625 q -4.59375,-6.9375 -14.71875,-6.9375 -8.4375,0 -13.21875,7.59375 -4.78125,7.5 -4.78125,21.84375 z" />
          <path
             id="path4636"
             style="font-style:normal;font-variant:normal;font-weight:900;font-stretch:normal;font-size:192px;font-family:Roboto;-inkscape-font-specification:'Roboto Heavy';fill:#ffffff;fill-opacity:0.941176;fill-rule:nonzero;stroke:none;stroke-width:0;stroke-miterlimit:4;stroke-dasharray:none;stroke-opacity:1;paint-order:markers stroke fill"
             d="m 338.47266,185.94727 q -23.34375,0 -37.78125,-13.875 -14.4375,-13.96875 -14.4375,-36.28125 v -2.625 q 0,-15.5625 5.71875,-27.46875 5.8125,-11.906255 16.875,-18.375005 11.0625,-6.5625 26.25,-6.5625 21.375,0 33.75,13.3125 12.375,13.218755 12.375,36.937505 v 12.28125 h -62.8125 q 1.6875,8.53125 7.40625,13.40625 5.71875,4.875 14.8125,4.875 15,0 23.4375,-10.5 l 14.4375,17.0625 q -5.90625,8.15625 -16.78125,13.03125 -10.78125,4.78125 -23.25,4.78125 z m -3.5625,-80.8125 q -13.875,0 -16.5,18.375 h 31.875 v -2.4375 q 0.1875,-7.59375 -3.84375,-11.71875 -4.03125,-4.21875 -11.53125,-4.21875 z" />
          <path
             id="path4638"
             style="font-style:normal;font-variant:normal;font-weight:900;font-stretch:normal;font-size:192px;font-family:Roboto;-inkscape-font-specification:'Roboto Heavy';fill:#ffffff;fill-opacity:0.941176;fill-rule:nonzero;stroke:none;stroke-width:0;stroke-miterlimit:4;stroke-dasharray:none;stroke-opacity:1;paint-order:markers stroke fill"
             d="m 431.28516,159.69727 h 46.21875 v 24.375 h -86.15625 v -17.625 l 45,-59.4375 H 393.31641 V 82.634765 h 83.15625 v 17.0625 z" />
        </g>
        <flowRoot
           style="font-style:normal;font-weight:normal;font-size:40px;line-height:25px;font-family:sans-serif;letter-spacing:0px;word-spacing:0px;fill:#000000;fill-opacity:1;stroke:none;stroke-width:0;stroke-miterlimit:4;stroke-dasharray:none;stroke-opacity:1;paint-order:markers stroke fill"
           id="flowRoot38-8"
           xml:space="preserve"><flowRegion
             id="flowRegion40-4"
             style="stroke:none;stroke-width:0;stroke-miterlimit:4;stroke-dasharray:none;stroke-opacity:1;paint-order:markers stroke fill"><rect
               y="51.42857"
               x="261.42856"
               height="40"
               width="2.1428571"
               id="rect42-7"
               style="stroke:none;stroke-opacity:1;paint-order:markers stroke fill;stroke-width:0;stroke-miterlimit:4;stroke-dasharray:none" /></flowRegion><flowPara
             id="flowPara44-9" /></flowRoot>
        <g
           transform="matrix(-0.20974254,0.24833364,-0.24833364,-0.20974254,134.95744,329.29254)"
           id="g4594"
           style="stroke:none;stroke-width:0;stroke-miterlimit:4;stroke-dasharray:none;stroke-opacity:1;paint-order:markers stroke fill">
          <path
             style="fill:#ffffff;fill-opacity:1;stroke:none;stroke-width:0;stroke-linecap:butt;stroke-linejoin:miter;stroke-miterlimit:4;stroke-dasharray:none;stroke-opacity:1;paint-order:markers stroke fill"
             d="m 33.639881,297 c -0.377976,-4.20499 1.196811,-40.90625 3.401785,-43.27827 0.968852,-0.70158 19.153631,-0.50113 19.654761,0 1.670435,1.9377 5.291668,39.21503 4.724704,43.27827 -4.009043,2.37202 -25.910363,1.63703 -27.78125,0 z"
             id="path46" />
          <g
             id="text50"
             style="font-style:normal;font-weight:normal;font-size:10.5833px;line-height:6.61458px;font-family:sans-serif;letter-spacing:0px;word-spacing:0px;fill:#322931;fill-opacity:1;stroke:none;stroke-width:0;stroke-miterlimit:4;stroke-dasharray:none;stroke-opacity:1;paint-order:markers stroke fill"
             aria-label="S">
            <path
               id="path4623"
               style="font-style:normal;font-variant:normal;font-weight:900;font-stretch:normal;font-size:22.5778px;font-family:Roboto;-inkscape-font-specification:'Roboto Heavy';fill:#322931;fill-opacity:1;stroke:none;stroke-width:0;stroke-miterlimit:4;stroke-dasharray:none;stroke-opacity:1;paint-order:markers stroke fill"
               d="m 50.029872,280.35487 q 0,-0.84887 -0.606337,-1.32292 -0.595312,-0.47404 -2.105642,-0.98116 -1.51033,-0.50712 -2.469445,-0.98116 -3.119878,-1.53238 -3.119878,-4.21129 0,-1.33394 0.771701,-2.34817 0.782726,-1.02526 2.204861,-1.5875 1.422136,-0.57327 3.197049,-0.57327 1.730816,0 3.09783,0.61736 1.378038,0.61736 2.138715,1.76389 0.760677,1.13551 0.760677,2.60174 h -3.858507 q 0,-0.98117 -0.606337,-1.52136 -0.595312,-0.54019 -1.620573,-0.54019 -1.036284,0 -1.642621,0.46302 -0.595313,0.452 -0.595313,1.15756 0,0.61736 0.661459,1.12447 0.661458,0.4961 2.326128,1.03629 1.66467,0.52917 2.734028,1.14653 2.601736,1.4993 2.601736,4.13411 0,2.10564 -1.5875,3.30729 -1.5875,1.20165 -4.354601,1.20165 -1.951302,0 -3.538802,-0.69453 -1.576475,-0.70555 -2.38125,-1.91823 -0.79375,-1.2237 -0.79375,-2.8112 h 3.880556 q 0,1.28985 0.661458,1.90721 0.672483,0.60634 2.171788,0.60634 0.959115,0 1.51033,-0.4079 0.56224,-0.41893 0.56224,-1.16858 z" />
          </g>
          <path
             style="fill:#ffffff;fill-opacity:1;stroke:none;stroke-width:0;stroke-linecap:butt;stroke-linejoin:miter;stroke-miterlimit:4;stroke-dasharray:none;stroke-opacity:1;paint-order:markers stroke fill"
             d="m 37.280768,251.56507 c 2.755353,-0.48581 16.061123,-0.65453 18.919568,0.007 -1.427772,-3.55131 -5.808811,-6.41101 -9.744701,-6.3311 -3.699161,0.0751 -7.784561,2.81715 -9.174867,6.3241 z"
             id="path52" />
          <path
             id="path4543"
             d="m 42.583118,243.33908 a 1.0512463,1.0512463 0 0 1 -1.051246,1.05125 1.0512463,1.0512463 0 0 1 -1.051246,-1.05125 1.0512463,1.0512463 0 0 1 1.051246,-1.05125 1.0512463,1.0512463 0 0 1 1.051246,1.05125 z"
             style="fill:#ffffff;fill-opacity:1;stroke:none;stroke-width:0;stroke-miterlimit:4;stroke-dasharray:none;stroke-opacity:1;paint-order:markers stroke fill" />
          <path
             id="path4543-2"
             d="m 48.357956,235.06029 a 1.0512463,1.0512463 0 0 1 -1.051247,1.05124 1.0512463,1.0512463 0 0 1 -1.051246,-1.05124 1.0512463,1.0512463 0 0 1 1.051246,-1.05125 1.0512463,1.0512463 0 0 1 1.051247,1.05125 z"
             style="fill:#ffffff;fill-opacity:1;stroke:none;stroke-width:0;stroke-miterlimit:4;stroke-dasharray:none;stroke-opacity:1;paint-order:markers stroke fill" />
          <path
             id="path4543-7"
             d="m 53.636528,243.81337 a 1.0512463,1.0512463 0 0 1 -1.051247,1.05125 1.0512463,1.0512463 0 0 1 -1.051246,-1.05125 1.0512463,1.0512463 0 0 1 1.051246,-1.05125 1.0512463,1.0512463 0 0 1 1.051247,1.05125 z"
             style="fill:#ffffff;fill-opacity:1;stroke:none;stroke-width:0;stroke-miterlimit:4;stroke-dasharray:none;stroke-opacity:1;paint-order:markers stroke fill" />
          <path
             id="path4543-27"
             d="m 47.890228,241.14067 a 1.0512463,1.0512463 0 0 1 -1.051246,1.05125 1.0512463,1.0512463 0 0 1 -1.051247,-1.05125 1.0512463,1.0512463 0 0 1 1.051247,-1.05125 1.0512463,1.0512463 0 0 1 1.051246,1.05125 z"
             style="fill:#ffffff;fill-opacity:1;stroke:none;stroke-width:0;stroke-miterlimit:4;stroke-dasharray:none;stroke-opacity:1;paint-order:markers stroke fill" />
          <path
             id="path4543-79"
             d="m 51.899273,238.73524 a 1.0512463,1.0512463 0 0 1 -1.051247,1.05125 1.0512463,1.0512463 0 0 1 -1.051246,-1.05125 1.0512463,1.0512463 0 0 1 1.051246,-1.05124 1.0512463,1.0512463 0 0 1 1.051247,1.05124 z"
             style="fill:#ffffff;fill-opacity:1;stroke:none;stroke-width:0;stroke-miterlimit:4;stroke-dasharray:none;stroke-opacity:1;paint-order:markers stroke fill" />
          <path
             id="path4543-9"
             d="m 43.07938,238.40115 a 1.0512463,1.0512463 0 0 1 -1.051247,1.05125 1.0512463,1.0512463 0 0 1 -1.051246,-1.05125 1.0512463,1.0512463 0 0 1 1.051246,-1.05124 1.0512463,1.0512463 0 0 1 1.051247,1.05124 z"
             style="fill:#ffffff;fill-opacity:1;stroke:none;stroke-width:0;stroke-miterlimit:4;stroke-dasharray:none;stroke-opacity:1;paint-order:markers stroke fill" />
        </g>
      </g>
    </g>
    <path
       d="m 142.14982,113.93696 c -0.0691,0 -0.14055,0.003 -0.21373,0.0101 -1.88609,0.14858 -1.3859,2.14491 -1.41446,2.81019 -0.0344,0.4877 -0.13386,0.87189 -0.46896,1.34798 -0.39489,0.46896 -0.94907,1.22706 -1.21189,2.01728 -0.12403,0.37124 -0.18293,0.75142 -0.12806,1.11059 -0.0173,0.0152 -0.0339,0.0303 -0.0495,0.0603 -0.116,0.11957 -0.20035,0.26818 -0.29539,0.37438 -0.0888,0.0887 -0.2164,0.11906 -0.35561,0.17848 -0.13966,0.0608 -0.29361,0.12006 -0.38553,0.30385 -0.0401,0.0839 -0.0608,0.17538 -0.0588,0.26818 0,0.0887 0.012,0.17894 0.0245,0.23917 0.0259,0.17802 0.0517,0.32529 0.0173,0.43281 -0.11066,0.30342 -0.12449,0.51135 -0.0468,0.66262 0.0777,0.14907 0.23871,0.20927 0.41899,0.26817 0.36186,0.0892 0.85223,0.0603 1.2382,0.26727 0.41318,0.20837 0.83261,0.29939 1.16726,0.2097 0.2347,-0.0513 0.43283,-0.20658 0.53902,-0.42166 0.26192,-8.7e-4 0.54882,-0.12007 1.00841,-0.14907 0.3119,-0.0258 0.70233,0.11906 1.15032,0.0887 0.0111,0.0603 0.0281,0.0887 0.051,0.14909 l 0.002,8.7e-4 c 0.17446,0.34713 0.49662,0.50508 0.84065,0.47787 0.34402,-0.0268 0.71035,-0.23915 1.00708,-0.58273 0.28156,-0.34135 0.75096,-0.48369 1.06106,-0.67065 0.15527,-0.0887 0.28068,-0.20927 0.28959,-0.38061 0.0103,-0.17847 -0.0888,-0.36231 -0.31859,-0.61441 v -0.0433 l -0.002,-8.8e-4 c -0.0758,-0.0892 -0.11156,-0.23873 -0.15081,-0.41319 -0.0379,-0.17894 -0.0812,-0.35072 -0.21954,-0.46673 h -8.7e-4 c -0.0264,-0.024 -0.0549,-0.0298 -0.0839,-0.0603 -0.0249,-0.017 -0.0541,-0.0277 -0.0847,-0.0285 0.19232,-0.57026 0.1178,-1.13783 -0.0772,-1.64828 -0.23783,-0.62916 -0.65369,-1.17709 -0.97051,-1.55413 -0.35517,-0.44843 -0.70321,-0.87322 -0.69652,-1.50326 0.0119,-0.96022 0.10576,-2.73657 -1.58133,-2.73922 z m 0.23604,1.51933 h 0.006 c 0.0951,0 0.1767,0.0277 0.26059,0.0883 0.0852,0.0603 0.14724,0.14808 0.19589,0.23781 0.0468,0.11554 0.0705,0.20484 0.0741,0.32307 0,-0.008 0.003,-0.0178 0.003,-0.0263 v 0.0463 c -8.8e-4,-0.003 -0.002,-0.007 -0.002,-0.0101 l -0.002,-0.0101 c -8.7e-4,0.10844 -0.0236,0.21551 -0.067,0.31503 -0.021,0.0559 -0.0531,0.1071 -0.0951,0.14942 -0.013,-0.007 -0.0254,-0.0135 -0.0393,-0.0189 -0.0468,-0.02 -0.0888,-0.0285 -0.12717,-0.0593 -0.0317,-0.0118 -0.0647,-0.0227 -0.0978,-0.0296 0.022,-0.0263 0.0647,-0.0593 0.0812,-0.0883 0.0236,-0.0572 0.0366,-0.11787 0.0393,-0.17938 v -0.008 c 8.7e-4,-0.0602 -0.008,-0.1209 -0.0272,-0.17845 -0.0201,-0.0603 -0.0451,-0.0898 -0.0817,-0.1491 -0.0375,-0.0295 -0.0745,-0.0588 -0.11913,-0.0588 h -0.007 c -0.0415,0 -0.0785,0.0135 -0.1169,0.0588 -0.0424,0.042 -0.0741,0.0924 -0.0915,0.1491 -0.0236,0.0566 -0.0374,0.11787 -0.0402,0.17845 v 0.008 c 8.9e-4,0.0398 0.004,0.0798 0.009,0.11906 -0.0861,-0.0299 -0.19544,-0.0603 -0.27084,-0.0901 -0.004,-0.029 -0.007,-0.0588 -0.008,-0.0887 v -0.008 c -0.004,-0.11786 0.0193,-0.23469 0.067,-0.34311 0.0366,-0.0977 0.10352,-0.18116 0.19186,-0.23783 0.0762,-0.0575 0.16912,-0.0887 0.26506,-0.0887 z m -1.32165,0.0263 h 0.016 c 0.0633,0 0.12048,0.0215 0.17804,0.0603 0.0652,0.0576 0.1178,0.12851 0.15349,0.2075 0.0402,0.0887 0.0629,0.1789 0.0683,0.29761 v 0.002 c 0.004,0.0597 0.003,0.0898 -8.8e-4,0.11874 v 0.0357 c -0.0134,0.003 -0.025,0.008 -0.0371,0.0101 -0.0678,0.0246 -0.12226,0.0603 -0.17535,0.0892 0.005,-0.0398 0.006,-0.08 0.002,-0.11907 v -0.007 c -0.005,-0.0593 -0.0173,-0.0887 -0.0366,-0.14858 -0.0138,-0.0456 -0.0393,-0.0861 -0.0741,-0.11905 -0.0219,-0.02 -0.0513,-0.0303 -0.0817,-0.0285 h -0.009 c -0.0318,0.003 -0.058,0.0184 -0.0831,0.0588 -0.0286,0.0345 -0.0468,0.0762 -0.0535,0.12042 -0.0119,0.0482 -0.0157,0.0977 -0.0103,0.14773 v 0.007 c 0.005,0.0603 0.0165,0.0897 0.0361,0.14909 0.0201,0.0596 0.0433,0.0892 0.0737,0.11955 0.004,0.003 0.009,0.008 0.0152,0.0101 -0.0313,0.0255 -0.0522,0.0312 -0.0785,0.0608 -0.0165,0.0118 -0.0356,0.0268 -0.0585,0.0303 -0.0464,-0.0559 -0.0875,-0.11601 -0.12271,-0.17937 -0.0427,-0.0938 -0.0652,-0.19543 -0.0691,-0.29761 -0.008,-0.10086 0.004,-0.20169 0.0356,-0.29806 0.0246,-0.0878 0.0679,-0.16912 0.12628,-0.23874 0.057,-0.0593 0.11602,-0.0892 0.18651,-0.0892 z m 0.61175,0.76122 c 0.1477,0 0.32662,0.029 0.54213,0.17804 0.13073,0.0892 0.23337,0.12007 0.46986,0.2088 h 8.8e-4 c 0.11377,0.0608 0.18071,0.11874 0.21329,0.17804 v -0.0585 c 0.0326,0.0656 0.0348,0.14184 0.007,0.20974 -0.0549,0.1388 -0.23024,0.28735 -0.47476,0.37615 v 8.7e-4 c -0.11956,0.0602 -0.22355,0.14858 -0.34581,0.20747 -0.12315,0.0603 -0.26237,0.13039 -0.45155,0.11908 -0.0678,0.003 -0.1361,-0.007 -0.1999,-0.0298 -0.0491,-0.0268 -0.0973,-0.0562 -0.14368,-0.0884 -0.087,-0.0603 -0.16197,-0.14806 -0.27308,-0.20748 v -0.002 h -0.002 c -0.17848,-0.10978 -0.27486,-0.22846 -0.3061,-0.31725 -0.0307,-0.11957 -0.002,-0.20927 0.0861,-0.26771 0.0999,-0.0603 0.16956,-0.12093 0.21551,-0.14994 0.0463,-0.033 0.0639,-0.0456 0.0785,-0.0586 h 8.8e-4 v -8.7e-4 c 0.0754,-0.09 0.19455,-0.20926 0.37436,-0.26814 0.062,-0.0169 0.13118,-0.029 0.20793,-0.029 z m 1.24891,0.95621 c 0.16021,0.63228 0.53412,1.55056 0.77463,1.99586 0.12761,0.23828 0.38148,0.74027 0.49171,1.34932 0.0695,-0.002 0.1468,0.008 0.2289,0.0285 0.28824,-0.74561 -0.24363,-1.54698 -0.48593,-1.76963 -0.0986,-0.0898 -0.1035,-0.14942 -0.0549,-0.14942 0.26282,0.23826 0.60907,0.70143 0.73445,1.23017 0.0576,0.2387 0.0709,0.4926 0.009,0.74517 0.0298,0.0118 0.0603,0.0272 0.0915,0.0298 0.46048,0.23825 0.63048,0.41853 0.54883,0.6858 v -0.0193 c -0.0272,-8.8e-4 -0.0534,0 -0.0808,0 h -0.007 c 0.0674,-0.20838 -0.0812,-0.36812 -0.4752,-0.54616 -0.40827,-0.17847 -0.73446,-0.14993 -0.79023,0.20748 -0.004,0.0193 -0.005,0.0295 -0.008,0.0603 -0.0303,0.0101 -0.062,0.0236 -0.0933,0.0285 -0.19187,0.11957 -0.29539,0.29852 -0.35384,0.52964 -0.058,0.23783 -0.0758,0.51581 -0.0915,0.83397 v 8.6e-4 c -0.009,0.1491 -0.0762,0.37394 -0.14234,0.60284 -0.6693,0.47833 -1.5974,0.68627 -2.38673,0.14908 -0.0495,-0.0861 -0.10977,-0.16695 -0.17937,-0.23781 -0.033,-0.0558 -0.0749,-0.10574 -0.12272,-0.14909 0.0812,0 0.15083,-0.0135 0.20749,-0.0299 0.0647,-0.0298 0.11468,-0.0839 0.14011,-0.14906 0.0482,-0.11924 0,-0.31102 -0.15394,-0.51895 -0.15393,-0.20838 -0.4154,-0.44398 -0.79782,-0.67867 -0.2811,-0.17805 -0.43994,-0.38822 -0.51312,-0.6229 -0.0737,-0.23827 -0.0638,-0.48413 -0.007,-0.73402 0.10932,-0.47741 0.38954,-0.94148 0.56846,-1.23285 0.0478,-0.029 0.0165,0.0603 -0.18204,0.43461 -0.1767,0.33511 -0.50911,1.11416 -0.0545,1.71967 0.0169,-0.4413 0.11513,-0.87679 0.28869,-1.28328 0.25167,-0.57024 0.77774,-1.56349 0.81923,-2.35061 0.0215,0.0169 0.0969,0.0603 0.12894,0.09 0.0973,0.0593 0.16956,0.14858 0.26327,0.2075 0.0942,0.0898 0.21284,0.14941 0.39088,0.14941 0.0173,8.8e-4 0.0334,0.003 0.0495,0.003 0.18338,0 0.32528,-0.0597 0.44442,-0.11958 0.12939,-0.0597 0.23246,-0.14908 0.33018,-0.17847 h 0.003 c 0.20838,-0.0602 0.37302,-0.17937 0.46629,-0.31234 z m 0.97541,3.99708 c 0.0165,0.26815 0.15305,0.55554 0.39355,0.61442 0.26236,0.0597 0.63985,-0.14857 0.79915,-0.34136 l 0.0942,-0.003 c 0.14053,-0.003 0.25745,0.005 0.37793,0.11907 l 0.002,8.8e-4 c 0.0928,0.0887 0.1361,0.23692 0.17447,0.39086 0.038,0.17894 0.0687,0.34805 0.18249,0.47566 0.21687,0.23513 0.28781,0.40427 0.28379,0.50866 l 8.9e-4,-0.003 v 0.008 l -8.9e-4,-0.005 c -0.007,0.11687 -0.0825,0.17672 -0.2222,0.26551 -0.28112,0.17892 -0.77907,0.31769 -1.09633,0.70052 -0.27576,0.32885 -0.61175,0.50822 -0.90846,0.53142 -0.29628,0.0236 -0.55196,-0.0892 -0.70233,-0.40067 l -0.003,-8.7e-4 c -0.0937,-0.17895 -0.0534,-0.45737 0.0249,-0.75409 0.0785,-0.29807 0.19097,-0.60014 0.20659,-0.84688 0.0165,-0.3186 0.0339,-0.59568 0.087,-0.80943 0.0535,-0.20748 0.13742,-0.35562 0.28601,-0.43906 l 0.0201,-0.0101 z m -4.82569,0.022 h 0.004 c 0.0236,0 0.0468,0.002 0.07,0.007 0.16778,0.0247 0.31502,0.14857 0.45647,0.33552 l 0.40605,0.74249 8.8e-4,8.9e-4 c 0.10842,0.23781 0.33643,0.47474 0.53052,0.73086 0.19365,0.26682 0.34358,0.50466 0.32529,0.70055 v 0.003 c -0.0255,0.33198 -0.21373,0.51225 -0.50199,0.57739 -0.2878,0.0603 -0.67822,8.7e-4 -1.06865,-0.20703 -0.43193,-0.23917 -0.94506,-0.20928 -1.27481,-0.26863 -0.16465,-0.0295 -0.27263,-0.0897 -0.3226,-0.17892 -0.0495,-0.0889 -0.0505,-0.26817 0.0549,-0.54882 v -8.9e-4 l 8.8e-4,-8.6e-4 c 0.0522,-0.14909 0.0133,-0.336 -0.0119,-0.49932 -0.0246,-0.17892 -0.037,-0.31635 0.0192,-0.41941 0.0715,-0.14909 0.17669,-0.17805 0.30743,-0.23784 0.13162,-0.0603 0.28602,-0.09 0.40872,-0.20926 h 8.8e-4 v -8.8e-4 c 0.11421,-0.11957 0.19857,-0.26819 0.29806,-0.37393 0.0847,-0.0897 0.16955,-0.14992 0.29583,-0.14992 z m 3.19437,-4.04886 c -0.1941,0.0898 -0.42166,0.23872 -0.66394,0.23872 -0.24186,0 -0.43281,-0.11906 -0.5707,-0.20792 -0.0691,-0.0597 -0.12493,-0.11956 -0.16688,-0.14942 -0.0732,-0.0597 -0.0642,-0.14908 -0.033,-0.14908 0.0486,0.007 0.0576,0.0603 0.0888,0.0898 0.0428,0.0295 0.0959,0.0887 0.16107,0.14858 0.12984,0.0892 0.30342,0.20836 0.52028,0.20836 0.2164,0 0.46984,-0.11905 0.62378,-0.20793 0.087,-0.0603 0.19857,-0.14908 0.28915,-0.20838 0.0695,-0.0611 0.0665,-0.11956 0.12449,-0.11956 0.0576,0.007 0.0152,0.0597 -0.0656,0.14857 -0.0808,0.0602 -0.20569,0.14942 -0.30785,0.20882 v -4.3e-4 z m -0.48279,-0.70678 v -0.0101 c -0.003,-0.008 0.006,-0.0188 0.013,-0.0222 0.033,-0.0193 0.0803,-0.0118 0.11601,0.002 0.0281,0 0.0714,0.0299 0.067,0.0603 -0.003,0.022 -0.0379,0.0295 -0.0603,0.0295 -0.0246,0 -0.041,-0.0193 -0.0629,-0.0303 -0.0232,-0.008 -0.0652,-0.003 -0.0727,-0.029 z m -0.24586,0 c -0.009,0.026 -0.0504,0.022 -0.0741,0.0295 -0.0211,0.0118 -0.0384,0.0303 -0.062,0.0303 -0.0227,0 -0.0585,-0.008 -0.0612,-0.0303 -0.004,-0.0295 0.0393,-0.0593 0.067,-0.0593 0.0361,-0.0135 0.082,-0.0209 0.11556,-0.002 0.009,0.003 0.016,0.0135 0.0134,0.0222 v 0.0101 h 8.7e-4 z"
       id="path1119"
       style="stroke:#e4dfe0;stroke-width:0;stroke-miterlimit:4;stroke-dasharray:none;stroke-opacity:1;paint-order:markers stroke fill" />
    <path
       d="m 120.33963,115.47621 4.11678,-0.56959 v 3.99052 h -4.11678 m 4.62303,-4.05428 5.51057,-0.82294 v 4.81346 h -5.51057 m -4.62303,0.50668 h 4.11678 v 3.99053 l -4.11678,-0.57086 m 4.62303,-3.41967 h 5.51057 v 4.81346 l -5.44681,-0.76043"
       id="path1144"
       style="stroke:#e4dfe0;stroke-width:0;stroke-miterlimit:4;stroke-dasharray:none;stroke-opacity:1;paint-order:markers stroke fill" />
    <path
       d="m 152.05926,121.12709 h 0.71874 v -1.87338 c 0,-0.36947 0.24246,-0.63791 0.58885,-0.63791 0.33483,0 0.54266,0.21071 0.54266,0.55131 v 1.95991 h 0.69854 v -1.89066 c 0,-0.36659 0.23669,-0.6206 0.58307,-0.6206 0.35215,0 0.54844,0.2136 0.54844,0.58886 v 1.92243 h 0.71874 v -2.09845 c 0,-0.61194 -0.39545,-1.01894 -0.99876,-1.01894 -0.44164,0 -0.8053,0.2367 -0.95257,0.61482 h -0.0173 c -0.11257,-0.39256 -0.42143,-0.61482 -0.85437,-0.61482 -0.41566,0 -0.73895,0.23381 -0.87174,0.58885 h -0.0144 v -0.53112 h -0.68987 v 3.05969 z m 5.9723,-0.49359 c -0.31175,0 -0.51957,-0.15876 -0.51957,-0.40989 0,-0.24247 0.19917,-0.39834 0.54555,-0.42143 l 0.70719,-0.0433 v 0.23381 c 0,0.36946 -0.32618,0.6408 -0.73317,0.6408 z m -0.21649,0.54266 c 0.39256,0 0.77648,-0.20494 0.95257,-0.53688 h 0.0144 v 0.48782 h 0.69276 v -2.10718 c 0,-0.61483 -0.49359,-1.01605 -1.25273,-1.01605 -0.77936,0 -1.26714,0.40988 -1.29892,0.98139 h 0.66678 c 0.0462,-0.25401 0.26268,-0.41855 0.60328,-0.41855 0.35505,0 0.57153,0.18474 0.57153,0.50514 v 0.21938 l -0.80825,0.0462 c -0.74471,0.0461 -1.16325,0.37236 -1.16325,0.91503 0,0.55132 0.43009,0.92368 1.02181,0.92368 z m 4.81482,-2.01769 c -0.0491,-0.64369 -0.54844,-1.1546 -1.35663,-1.1546 -0.88903,0 -1.46636,0.61483 -1.46636,1.59331 0,0.993 0.5773,1.59044 1.47212,1.59044 0.76784,0 1.29604,-0.4503 1.35375,-1.13443 h -0.67833 c -0.0664,0.34638 -0.30308,0.5542 -0.66678,0.5542 -0.45607,0 -0.75047,-0.36947 -0.75047,-1.01028 0,-0.62926 0.29153,-1.01029 0.74471,-1.01029 0.3839,0 0.61193,0.24536 0.66967,0.57153 h 0.67833 z m 2.21986,-2.2659 c -1.21519,0 -1.97727,0.82843 -1.97727,2.15336 0,1.32493 0.762,2.15047 1.97727,2.15047 1.21232,0 1.97439,-0.82554 1.97439,-2.15047 0,-1.32493 -0.762,-2.15336 -1.97439,-2.15336 z m 0,0.63503 c 0.74183,0 1.2152,0.58885 1.2152,1.51831 0,0.92657 -0.47338,1.51544 -1.2152,1.51544 -0.7447,0 -1.21519,-0.58886 -1.21519,-1.51544 0,-0.92944 0.4705,-1.51831 1.21519,-1.51831 z m 2.27758,2.42759 c 0.0317,0.76783 0.66101,1.2412 1.61933,1.2412 1.0074,0 1.64245,-0.49648 1.64245,-1.28739 0,-0.6206 -0.35793,-0.96986 -1.20367,-1.16324 l -0.47916,-0.10969 c -0.51091,-0.12124 -0.72162,-0.28288 -0.72162,-0.55998 0,-0.34639 0.31751,-0.5773 0.78801,-0.5773 0.47627,0 0.80242,0.2338 0.83707,0.62348 h 0.71009 c -0.0173,-0.73318 -0.62349,-1.22968 -1.54137,-1.22968 -0.90639,0 -1.55009,0.49936 -1.55009,1.23832 0,0.59463 0.36371,0.96411 1.13148,1.1402 l 0.53977,0.127 c 0.52535,0.12413 0.73895,0.29732 0.73895,0.59752 0,0.34637 -0.34927,0.59462 -0.85149,0.59462 -0.50802,0 -0.8919,-0.25113 -0.93809,-0.63505 h -0.72162 z"
       id="path1165"
       style="stroke:none;stroke-width:1.02306;stroke-linecap:square;stroke-linejoin:round;stroke-miterlimit:4;stroke-dasharray:none;stroke-opacity:1;paint-order:markers stroke fill" />
    <path
       d="m 86.000254,120.10633 c 0,0.0173 0,0.0352 0,0.0532 0,0.62778 -0.50885,1.13664 -1.13666,1.13664 -0.62779,0 -1.13663,-0.50886 -1.13663,-1.13664 0,-0.0186 0,-0.0359 0,-0.0532 h -3.81679 v 9.91265 h 9.91265 v -9.91265 z m -1.35928,8.85158 -0.48282,-2.38853 h -0.007 l -0.52206,2.38853 h -0.66538 l -0.75337,-3.50948 h 0.65671 l 0.44937,2.38854 h 0.007 l 0.54148,-2.38854 h 0.61419 l 0.48612,2.41786 h 0.007 l 0.51298,-2.41786 h 0.64473 l -0.8372,3.50948 z m 3.61605,0 -0.22386,-0.78103 h -1.18167 l -0.17224,0.78103 h -0.6567 l 0.84919,-3.50948 h 1.03628 l 1.03258,3.50948 z m -0.99003,-2.6446 -0.28663,1.28782 h 0.89172 l -0.32877,-1.28782 z"
       id="path1224"
       style="stroke:#e4dfe0;stroke-width:0;stroke-miterlimit:4;stroke-dasharray:none;stroke-opacity:1;paint-order:markers stroke fill" />
    <path
       d="m 77.038539,129.76736 h -8.953845 a 5.0738432,5.0738432 0 0 1 0.824484,-2.26459 4.1784591,4.1784591 0 0 1 1.365466,-1.31694 l 0.152969,-0.0859 -0.753621,-1.2722 a 0.19026912,0.19026912 0 0 1 0.0635,-0.26115 0.18653836,0.18653836 0 0 1 0.257417,0.0671 l 0.776015,1.30576 a 4.7082281,4.7082281 0 0 1 1.805682,-0.33575 4.5515359,4.5515359 0 0 1 1.772108,0.33575 l 0.772271,-1.30576 a 0.18653836,0.18653836 0 0 1 0.26115,-0.0635 0.19026912,0.19026912 0 0 1 0.0597,0.26115 l -0.753622,1.27591 0.186544,0.10454 a 4.245613,4.245613 0 0 1 1.354264,1.35054 5.4021508,5.4021508 0 0 1 0.80959,2.20488 z m -2.798082,-1.67139 a 0.37307671,0.37307671 0 0 0 0.373067,0.37308 0.37307671,0.37307671 0 0 0 0.373087,-0.37308 0.37307671,0.37307671 0 0 0 -0.373087,-0.37307 0.37307671,0.37307671 0 0 0 -0.373067,0.37307 z m -4.103856,0 a 0.37307671,0.37307671 0 0 0 0.373087,0.37308 0.37307671,0.37307671 0 0 0 0.373077,-0.37308 0.37307671,0.37307671 0 0 0 -0.373077,-0.37307 0.37307671,0.37307671 0 0 0 -0.373087,0.37307 z"
       id="path1347"
       style="stroke:#e4dfe0;stroke-width:0;stroke-miterlimit:4;stroke-dasharray:none;stroke-opacity:1;paint-order:markers stroke fill" />
    <path
       d="m 33.748542,121.23429 4.11678,-0.56959 v 3.99052 h -4.11678 m 4.62303,-4.05428 5.51057,-0.82294 v 4.81346 h -5.51057 m -4.62303,0.50668 h 4.11678 v 3.99053 l -4.11678,-0.57086 m 4.62303,-3.41967 h 5.51057 v 4.81346 l -5.44681,-0.76043"
       id="path1144-6"
       style="stroke:#e4dfe0;stroke-width:0;stroke-miterlimit:4;stroke-dasharray:none;stroke-opacity:1;paint-order:markers stroke fill" />
    <path
       d="m 51.369473,119.69504 c -0.0691,0 -0.14055,0.003 -0.21373,0.0101 -1.88609,0.14858 -1.3859,2.14491 -1.41446,2.81019 -0.0344,0.4877 -0.13386,0.87189 -0.46896,1.34798 -0.39489,0.46896 -0.94907,1.22706 -1.21189,2.01728 -0.12403,0.37124 -0.18293,0.75142 -0.12806,1.11059 -0.0173,0.0152 -0.0339,0.0303 -0.0495,0.0603 -0.116,0.11957 -0.20035,0.26818 -0.29539,0.37438 -0.0888,0.0887 -0.2164,0.11906 -0.35561,0.17848 -0.13966,0.0608 -0.29361,0.12006 -0.38553,0.30385 -0.0401,0.0839 -0.0608,0.17538 -0.0588,0.26818 0,0.0887 0.012,0.17894 0.0245,0.23917 0.0259,0.17802 0.0517,0.32529 0.0173,0.43281 -0.11066,0.30342 -0.12449,0.51135 -0.0468,0.66262 0.0777,0.14907 0.23871,0.20927 0.41899,0.26817 0.36186,0.0892 0.85223,0.0603 1.2382,0.26727 0.41318,0.20837 0.83261,0.29939 1.16726,0.2097 0.2347,-0.0513 0.43283,-0.20658 0.53902,-0.42166 0.26192,-8.7e-4 0.54882,-0.12007 1.00841,-0.14907 0.3119,-0.0258 0.70233,0.11906 1.15032,0.0887 0.0111,0.0603 0.0281,0.0887 0.051,0.14909 l 0.002,8.8e-4 c 0.17446,0.34713 0.49662,0.50508 0.84065,0.47787 0.34402,-0.0268 0.71035,-0.23915 1.00708,-0.58273 0.28156,-0.34135 0.75096,-0.48369 1.06106,-0.67065 0.15527,-0.0887 0.28068,-0.20927 0.28959,-0.38061 0.0103,-0.17847 -0.0888,-0.36231 -0.31859,-0.61441 v -0.0433 l -0.002,-8.8e-4 c -0.0758,-0.0892 -0.11156,-0.23874 -0.15081,-0.4132 -0.0379,-0.17894 -0.0812,-0.35072 -0.21954,-0.46673 h -8.8e-4 c -0.0264,-0.024 -0.0549,-0.0298 -0.0839,-0.0603 -0.0249,-0.017 -0.0541,-0.0277 -0.0847,-0.0285 0.19232,-0.57026 0.1178,-1.13783 -0.0772,-1.64828 -0.23782,-0.62916 -0.65368,-1.17709 -0.9705,-1.55413 -0.35517,-0.44843 -0.70321,-0.87322 -0.69652,-1.50326 0.0119,-0.96022 0.10576,-2.73657 -1.58133,-2.73922 z m 0.23604,1.51933 h 0.006 c 0.0951,0 0.1767,0.0277 0.26059,0.0883 0.0852,0.0603 0.14724,0.14808 0.19589,0.23781 0.0468,0.11554 0.0705,0.20484 0.0741,0.32307 0,-0.008 0.003,-0.0178 0.003,-0.0263 v 0.0463 c -8.8e-4,-0.003 -0.002,-0.007 -0.002,-0.0101 l -0.002,-0.0101 c -8.8e-4,0.10844 -0.0236,0.21551 -0.067,0.31503 -0.021,0.0559 -0.0531,0.1071 -0.0951,0.14942 -0.013,-0.007 -0.0254,-0.0135 -0.0393,-0.0189 -0.0468,-0.02 -0.0888,-0.0285 -0.12717,-0.0593 -0.0317,-0.0118 -0.0647,-0.0227 -0.0978,-0.0296 0.022,-0.0263 0.0647,-0.0593 0.0812,-0.0883 0.0236,-0.0572 0.0366,-0.11787 0.0393,-0.17938 v -0.008 c 8.9e-4,-0.0602 -0.008,-0.1209 -0.0272,-0.17845 -0.0201,-0.0603 -0.0451,-0.0898 -0.0817,-0.1491 -0.0375,-0.0295 -0.0745,-0.0588 -0.11913,-0.0588 h -0.007 c -0.0415,0 -0.0785,0.0135 -0.1169,0.0588 -0.0424,0.042 -0.0741,0.0924 -0.0915,0.1491 -0.0236,0.0566 -0.0374,0.11787 -0.0402,0.17845 v 0.008 c 9e-4,0.0398 0.004,0.0798 0.009,0.11906 -0.0861,-0.0299 -0.19544,-0.0603 -0.27084,-0.0901 -0.004,-0.029 -0.007,-0.0588 -0.008,-0.0887 v -0.008 c -0.004,-0.11786 0.0193,-0.23469 0.067,-0.34311 0.0366,-0.0977 0.10352,-0.18116 0.19186,-0.23783 0.0762,-0.0575 0.16912,-0.0887 0.26506,-0.0887 z m -1.32165,0.0263 h 0.016 c 0.0633,0 0.12048,0.0215 0.17804,0.0603 0.0652,0.0576 0.1178,0.12851 0.15349,0.2075 0.0402,0.0887 0.0629,0.1789 0.0683,0.29761 v 0.002 c 0.004,0.0597 0.003,0.0898 -8.8e-4,0.11874 v 0.0357 c -0.0134,0.003 -0.025,0.008 -0.0371,0.0101 -0.0678,0.0246 -0.12226,0.0603 -0.17535,0.0892 0.005,-0.0398 0.006,-0.08 0.002,-0.11907 v -0.007 c -0.005,-0.0593 -0.0173,-0.0887 -0.0366,-0.14858 -0.0138,-0.0456 -0.0393,-0.0861 -0.0741,-0.11905 -0.0219,-0.02 -0.0513,-0.0303 -0.0817,-0.0285 h -0.009 c -0.0318,0.003 -0.058,0.0184 -0.0831,0.0588 -0.0286,0.0345 -0.0468,0.0762 -0.0535,0.12042 -0.0119,0.0482 -0.0157,0.0977 -0.0103,0.14773 v 0.007 c 0.005,0.0603 0.0165,0.0897 0.0361,0.14909 0.0201,0.0596 0.0433,0.0892 0.0737,0.11955 0.004,0.003 0.009,0.008 0.0152,0.0101 -0.0313,0.0255 -0.0522,0.0312 -0.0785,0.0608 -0.0165,0.0118 -0.0356,0.0268 -0.0585,0.0303 -0.0464,-0.0559 -0.0875,-0.11601 -0.12272,-0.17937 -0.0427,-0.0938 -0.0652,-0.19543 -0.0691,-0.29761 -0.008,-0.10086 0.004,-0.20169 0.0356,-0.29806 0.0246,-0.0878 0.0679,-0.16912 0.12628,-0.23874 0.057,-0.0593 0.11602,-0.0892 0.18651,-0.0892 z m 0.61175,0.76122 c 0.1477,0 0.32662,0.029 0.54213,0.17804 0.13073,0.0892 0.23337,0.12007 0.46986,0.2088 h 8.7e-4 c 0.11377,0.0608 0.18071,0.11874 0.21329,0.17804 v -0.0585 c 0.0326,0.0656 0.0348,0.14184 0.007,0.20974 -0.0549,0.1388 -0.23024,0.28735 -0.47476,0.37615 v 8.8e-4 c -0.11956,0.0602 -0.22355,0.14858 -0.34581,0.20747 -0.12315,0.0603 -0.26237,0.13039 -0.45155,0.11908 -0.0678,0.003 -0.1361,-0.007 -0.1999,-0.0298 -0.0491,-0.0268 -0.0973,-0.0562 -0.14368,-0.0884 -0.087,-0.0603 -0.16197,-0.14806 -0.27308,-0.20748 v -0.002 h -0.002 c -0.17848,-0.10978 -0.27486,-0.22846 -0.3061,-0.31725 -0.0307,-0.11957 -0.002,-0.20927 0.0861,-0.26771 0.0999,-0.0603 0.16956,-0.12093 0.21551,-0.14994 0.0463,-0.033 0.0639,-0.0456 0.0785,-0.0586 h 8.7e-4 v -8.7e-4 c 0.0754,-0.09 0.19458,-0.20926 0.37439,-0.26814 0.062,-0.0169 0.13118,-0.029 0.20793,-0.029 z m 1.24891,0.95621 c 0.16021,0.63228 0.53412,1.55056 0.77463,1.99586 0.12761,0.23828 0.38148,0.74027 0.49171,1.34932 0.0695,-0.002 0.1468,0.008 0.2289,0.0285 0.28824,-0.74561 -0.24363,-1.54698 -0.48593,-1.76963 -0.0986,-0.0898 -0.1035,-0.14942 -0.0549,-0.14942 0.26282,0.23826 0.60907,0.70143 0.73445,1.23017 0.0576,0.2387 0.0709,0.4926 0.009,0.74517 0.0298,0.0118 0.0603,0.0272 0.0915,0.0298 0.46048,0.23825 0.63048,0.41853 0.54883,0.6858 v -0.0193 c -0.0272,-8.7e-4 -0.0534,0 -0.0808,0 h -0.007 c 0.0674,-0.20838 -0.0812,-0.36812 -0.4752,-0.54616 -0.40827,-0.17847 -0.73446,-0.14993 -0.79023,0.20748 -0.004,0.0193 -0.005,0.0295 -0.008,0.0603 -0.0303,0.0101 -0.062,0.0236 -0.0933,0.0285 -0.19187,0.11957 -0.29539,0.29852 -0.35384,0.52964 -0.058,0.23783 -0.0758,0.51581 -0.0915,0.83397 v 8.8e-4 c -0.009,0.1491 -0.0762,0.37394 -0.14234,0.60284 -0.6693,0.47833 -1.5974,0.68627 -2.38673,0.14908 -0.0495,-0.0861 -0.10977,-0.16695 -0.17937,-0.23781 -0.033,-0.0558 -0.0749,-0.10574 -0.12272,-0.14909 0.0812,0 0.15083,-0.0135 0.20749,-0.0299 0.0647,-0.0298 0.11468,-0.0839 0.14011,-0.14906 0.0482,-0.11924 0,-0.31102 -0.15394,-0.51895 -0.15393,-0.2084 -0.4154,-0.444 -0.79782,-0.67869 -0.2811,-0.17805 -0.43994,-0.38822 -0.51312,-0.6229 -0.0737,-0.23827 -0.0638,-0.48413 -0.007,-0.73402 0.10932,-0.47741 0.38954,-0.94148 0.56846,-1.23285 0.0478,-0.029 0.0165,0.0603 -0.18204,0.43461 -0.1767,0.33511 -0.50911,1.11416 -0.0545,1.71967 0.0169,-0.4413 0.11513,-0.87679 0.28869,-1.28328 0.25167,-0.57024 0.77774,-1.56349 0.81923,-2.35061 0.0215,0.0169 0.0969,0.0603 0.12894,0.09 0.0973,0.0593 0.16956,0.14858 0.26327,0.2075 0.0942,0.0898 0.21284,0.14941 0.39088,0.14941 0.0173,8.8e-4 0.0334,0.003 0.0495,0.003 0.18338,0 0.32528,-0.0597 0.44442,-0.11958 0.12939,-0.0597 0.23246,-0.14908 0.33018,-0.17847 h 0.003 c 0.20838,-0.0602 0.37302,-0.17937 0.46629,-0.31234 z m 0.97541,3.99708 c 0.0165,0.26815 0.15305,0.55554 0.39355,0.61442 0.26236,0.0597 0.63985,-0.14857 0.79915,-0.34136 l 0.0942,-0.003 c 0.14053,-0.003 0.25745,0.005 0.37793,0.11907 l 0.002,8.8e-4 c 0.0928,0.0887 0.1361,0.23692 0.17447,0.39086 0.038,0.17894 0.0687,0.34805 0.18249,0.47566 0.21687,0.23513 0.28781,0.40427 0.28379,0.50866 l 9e-4,-0.003 v 0.008 l -9e-4,-0.005 c -0.007,0.11687 -0.0825,0.17672 -0.2222,0.26551 -0.28112,0.17892 -0.77907,0.31769 -1.09633,0.70052 -0.27576,0.32885 -0.61175,0.50822 -0.90846,0.53142 -0.29628,0.0236 -0.55196,-0.0892 -0.70233,-0.40067 l -0.003,-8.8e-4 c -0.0937,-0.17895 -0.0534,-0.45737 0.0249,-0.75409 0.0785,-0.29807 0.19097,-0.60014 0.20659,-0.84688 0.0165,-0.3186 0.0339,-0.59568 0.087,-0.80943 0.0535,-0.20748 0.13742,-0.35562 0.28601,-0.43906 l 0.0201,-0.0101 z m -4.82569,0.022 h 0.004 c 0.0236,0 0.0468,0.002 0.07,0.007 0.16778,0.0247 0.31502,0.14857 0.45647,0.33552 l 0.40605,0.74249 8.8e-4,9e-4 c 0.10842,0.23781 0.33643,0.47474 0.53052,0.73086 0.19365,0.26682 0.34358,0.50466 0.32529,0.70055 v 0.003 c -0.0255,0.33199 -0.21373,0.51226 -0.50199,0.5774 -0.2878,0.0603 -0.67822,8.5e-4 -1.06865,-0.20705 -0.43193,-0.23917 -0.94506,-0.20928 -1.27481,-0.26863 -0.16465,-0.0295 -0.27263,-0.0897 -0.3226,-0.17892 -0.0495,-0.0889 -0.0505,-0.26817 0.0549,-0.54882 v -9e-4 l 8.8e-4,-8.4e-4 c 0.0522,-0.1491 0.0133,-0.33601 -0.0119,-0.49933 -0.0246,-0.17892 -0.037,-0.31635 0.0192,-0.41941 0.0715,-0.14909 0.17669,-0.17805 0.30743,-0.23784 0.13162,-0.0603 0.28602,-0.09 0.40872,-0.20926 h 8.8e-4 v -8.7e-4 c 0.11421,-0.11958 0.19857,-0.2682 0.29806,-0.37394 0.0847,-0.0897 0.16955,-0.14992 0.29583,-0.14992 z m 3.19437,-4.04886 c -0.1941,0.0898 -0.42166,0.23872 -0.66394,0.23872 -0.24186,0 -0.43281,-0.11906 -0.5707,-0.20792 -0.0691,-0.0597 -0.12493,-0.11956 -0.16688,-0.14942 -0.0732,-0.0597 -0.0642,-0.14908 -0.033,-0.14908 0.0486,0.007 0.0576,0.0603 0.0888,0.0898 0.0428,0.0295 0.0959,0.0887 0.16107,0.14858 0.12984,0.0892 0.30342,0.20836 0.52028,0.20836 0.2164,0 0.46984,-0.11905 0.62378,-0.20793 0.087,-0.0603 0.19857,-0.14908 0.28915,-0.20838 0.0695,-0.0611 0.0665,-0.11956 0.12449,-0.11956 0.0576,0.007 0.0152,0.0597 -0.0656,0.14857 -0.0808,0.0602 -0.20569,0.14942 -0.30785,0.20882 v -4.2e-4 z m -0.48279,-0.70678 v -0.0101 c -0.003,-0.008 0.006,-0.0188 0.013,-0.0222 0.033,-0.0193 0.0803,-0.0118 0.11601,0.002 0.0281,0 0.0714,0.0299 0.067,0.0603 -0.003,0.022 -0.0379,0.0295 -0.0603,0.0295 -0.0246,0 -0.041,-0.0193 -0.0629,-0.0303 -0.0232,-0.008 -0.0652,-0.003 -0.0727,-0.029 z m -0.24586,0 c -0.009,0.026 -0.0504,0.022 -0.0741,0.0295 -0.0211,0.0118 -0.0384,0.0303 -0.062,0.0303 -0.0227,0 -0.0585,-0.008 -0.0612,-0.0303 -0.004,-0.0295 0.0393,-0.0593 0.067,-0.0593 0.0361,-0.0135 0.082,-0.0209 0.11556,-0.002 0.009,0.003 0.016,0.0135 0.0134,0.0222 v 0.0101 h 8.7e-4 z"
       id="path1119-4"
       style="stroke:#e4dfe0;stroke-width:0;stroke-miterlimit:4;stroke-dasharray:none;stroke-opacity:1;paint-order:markers stroke fill" />
    <path
       d="m 59.313879,129.56935 c -0.188292,-0.12577 -0.355467,-0.27983 -0.495185,-0.45777 -0.152463,-0.18429 -0.293788,-0.37815 -0.42355,-0.57877 -0.304904,-0.44582 -0.543353,-0.93346 -0.70855,-1.44735 -0.199025,-0.59789 -0.295745,-1.17029 -0.295745,-1.73037 0,-0.62496 0.1354,-1.1703 0.398848,-1.62807 0.195057,-0.35824 0.485632,-0.65798 0.835918,-0.86857 0.338361,-0.21097 0.732443,-0.32641 1.130504,-0.33437 0.139314,0 0.290585,0.0199 0.449803,0.0598 0.115401,0.0319 0.254758,0.0836 0.425922,0.14729 0.21895,0.0836 0.338361,0.13525 0.378168,0.14728 0.127421,0.0477 0.234843,0.0677 0.318446,0.0677 0.06361,0 0.15524,-0.0199 0.256747,-0.0518 0.05776,-0.0199 0.167186,-0.0556 0.322425,-0.12337 0.153644,-0.0556 0.275469,-0.1035 0.372189,-0.13931 0.147293,-0.0437 0.289788,-0.0836 0.417954,-0.10351 0.15525,-0.0239 0.309298,-0.0319 0.456974,-0.0199 0.282628,0.0199 0.541375,0.0796 0.77225,0.16719 0.406018,0.16319 0.733616,0.41797 0.978026,0.7802 -0.1035,0.0636 -0.19903,0.13766 -0.2886,0.21893 -0.193848,0.17117 -0.358246,0.37418 -0.489603,0.59909 -0.171165,0.3065 -0.258736,0.6528 -0.256364,1.0031 0.0064,0.4311 0.1154,0.81005 0.334371,1.13846 0.154059,0.23883 0.35986,0.44343 0.610636,0.61142 0.12337,0.0836 0.23166,0.14127 0.33438,0.17912 -0.0479,0.14925 -0.10033,0.29456 -0.16122,0.43787 -0.13812,0.32123 -0.30253,0.62893 -0.497582,0.91952 -0.171962,0.25077 -0.307309,0.43787 -0.409996,0.56126 -0.160016,0.19107 -0.314468,0.33437 -0.469718,0.43667 -0.171165,0.11345 -0.372179,0.17356 -0.577981,0.17356 -0.139314,0.006 -0.278639,-0.012 -0.411592,-0.0505 -0.115389,-0.0378 -0.229279,-0.0803 -0.340743,-0.12863 -0.116603,-0.0533 -0.237248,-0.0987 -0.360233,-0.1354 -0.151282,-0.0397 -0.30651,-0.0588 -0.463356,-0.0585 -0.159218,0 -0.314468,0.0199 -0.46175,0.0578 -0.123368,0.0351 -0.242811,0.0781 -0.36103,0.12939 -0.167197,0.0697 -0.276661,0.11539 -0.34034,0.13525 -0.128942,0.0382 -0.26114,0.0614 -0.394092,0.0697 -0.235126,-0.005 -0.43576,-0.10774 -0.586331,-0.18441 z m 2.728289,-7.34817 c -0.270672,0.1354 -0.527812,0.19264 -0.785367,0.17353 -0.03989,-0.25714 0,-0.52145 0.107422,-0.81083 0.09553,-0.2468 0.222907,-0.46972 0.39805,-0.66874 0.183111,-0.20701 0.40205,-0.37817 0.64884,-0.50157 0.262725,-0.1354 0.513493,-0.20698 0.752335,-0.21893 0.03191,0.27068 0,0.53739 -0.09946,0.82399 -0.09074,0.25475 -0.226088,0.48961 -0.39805,0.70059 -0.173165,0.20699 -0.388115,0.37815 -0.63133,0.50154 z"
       id="path1446-5"
       style="stroke:#e4dfe0;stroke-width:0;stroke-miterlimit:4;stroke-dasharray:none;stroke-opacity:1;paint-order:markers stroke fill"
       sodipodi:nodetypes="ccccsccccccsccccccccccccccccccccccccccccccccccccc" />
    <path
       style="fill:#322931;fill-opacity:1;stroke:none;stroke-width:1.10243;stroke-linecap:butt;stroke-linejoin:miter;stroke-miterlimit:4;stroke-dasharray:none;stroke-opacity:0.862661;paint-order:markers stroke fill"
       d="m 85.595402,93.829691 h 23.177868 l -7.39696,-4.506799 v 2.297886 L 85.595402,92.23147 Z"
       id="path1502"
       sodipodi:nodetypes="cccccc" />
    <path
       style="fill:#322931;fill-opacity:1;stroke:none;stroke-width:1.10243;stroke-linecap:butt;stroke-linejoin:miter;stroke-miterlimit:4;stroke-dasharray:none;stroke-opacity:0.862661;paint-order:markers stroke fill"
       d="M 108.77327,96.972349 H 85.595403 l 7.396962,4.506801 v -2.297888 l 15.780905,-0.699144 z"
       id="path1502-5"
       sodipodi:nodetypes="cccccc" />
  </g>
</svg>
