<?xml version="1.0" encoding="UTF-8" standalone="no"?>
<!DOCTYPE svg PUBLIC "-//W3C//DTD SVG 1.1//EN" "http://www.w3.org/Graphics/SVG/1.1/DTD/svg11.dtd">
<svg width="100%" height="100%" viewBox="0 0 1500 1500" version="1.1" xmlns="http://www.w3.org/2000/svg" xmlns:xlink="http://www.w3.org/1999/xlink" xml:space="preserve" xmlns:serif="http://www.serif.com/" style="fill-rule:evenodd;clip-rule:evenodd;stroke-linejoin:round;stroke-miterlimit:2;">
    <g transform="matrix(1.65375,0,0,1.65375,-427.665,-244.944)">
        <g transform="matrix(-1,1.22465e-16,-1.77341e-16,-1.4481,1110.98,1718.55)">
            <path d="M400.105,467.654L518.375,750L400.105,558.157L281.835,750L400.105,467.654Z"/>
        </g>
        <g transform="matrix(-1,-1.22465e-16,-1.77341e-16,1.4481,1110.98,-515.296)">
            <path d="M400.105,467.654L518.375,750L400.105,558.157L281.835,750L400.105,467.654Z"/>
        </g>
        <g transform="matrix(1,0,0,1,309.515,-142.176)">
            <path d="M340.97,608.827L401.363,558.097L459.24,608.827L514.352,728.233L401.363,740.448L518.375,750L401.363,992.378L342.838,873.7L401.363,836.928L333.167,854.09L281.835,750L317.341,665.237L401.363,690.617L328.394,638.849L340.97,608.827Z" style="fill:rgb(32,180,84);"/>
        </g>
        <g transform="matrix(0.943718,-0.330752,0.330752,0.943718,-172.4,33.3769)">
            <path d="M541.752,608.827L670.616,541.992L596.833,608.827L521.678,750.825L481.113,725.862L398.176,750.825L487.576,662.407L525.02,657.376L499.691,650.426L541.752,608.827Z" style="fill:rgb(0,1,0);"/>
        </g>
        <g transform="matrix(-0.929073,-0.369895,-0.369895,0.929073,1620.19,82.0448)">
            <path d="M541.752,608.827L672.969,541.992L600.859,608.827L547.119,705.2L521.147,708.45L538.353,720.921L521.678,750.825L483.169,721.836L398.176,750.825L517.104,633.336L527.64,646.408L528.824,621.613L541.752,608.827Z" style="fill:rgb(0,1,0);"/>
        </g>
        <g transform="matrix(-0.968494,0.249038,-0.249038,-0.968494,1545.15,1294.07)">
            <path d="M541.752,608.827L612.35,557.46L600.859,608.827L547.119,705.2L525.657,701.364L538.353,720.921L521.678,750.825L483.169,721.836L398.176,750.825L517.104,633.336L539.235,633.886L528.824,621.613L541.752,608.827Z" style="fill:rgb(0,1,0);"/>
        </g>
        <g transform="matrix(0.976038,0.2176,0.2176,-0.976038,-100.312,1278.52)">
            <path d="M541.752,608.827L612.35,557.46L600.859,608.827L547.119,705.2L525.657,701.364L538.353,720.921L521.678,750.825L483.169,721.836L398.176,750.825L517.104,633.336L539.235,633.886L528.824,621.613L541.752,608.827Z" style="fill:rgb(0,1,0);"/>
        </g>
    </g>
</svg>
