<svg xmlns="http://www.w3.org/2000/svg" xml:space="preserve" fill-rule="evenodd" stroke-linejoin="round" stroke-miterlimit="2" clip-rule="evenodd" viewBox="0 0 320 90"><path fill="none" d="M0 0h320v90H0z"/><path fill="#e96a53" d="M10 10h149.955v70H10z"/><path fill="#6e588b" d="M162.233 10h44.532v70h-44.532z"/><path fill="#e96a53" d="M209.031 10H310v70H209.031z"/><path fill="#fff" fill-rule="nonzero" d="M46.885 68.349c-4.193 0-7.861-.952-11.006-2.855-3.144-1.903-5.585-4.482-7.323-7.737-1.737-3.255-2.606-6.84-2.606-10.757 0-3.972.827-7.571 2.482-10.798 1.655-3.228 4.027-5.793 7.116-7.696 3.09-1.903 6.73-2.855 10.923-2.855 4.248 0 7.902.952 10.964 2.855 3.062 1.903 5.42 4.468 7.075 7.696 1.655 3.227 2.482 6.826 2.482 10.798v2.482H32.321c.331 2.428 1.117 4.648 2.359 6.662 1.241 2.013 2.909 3.613 5.006 4.799 2.096 1.186 4.523 1.779 7.281 1.779 2.924 0 5.379-.648 7.365-1.945 1.986-1.296 3.531-2.965 4.634-5.006h6.785c-1.434 3.696-3.71 6.716-6.827 9.061-3.116 2.344-7.13 3.517-12.039 3.517ZM32.404 43.69h28.134c-.552-3.53-2.041-6.482-4.468-8.854-2.428-2.372-5.627-3.558-9.599-3.558-3.972 0-7.158 1.186-9.557 3.558-2.4 2.372-3.903 5.324-4.51 8.854Zm42.201 23.997V26.313h6.206v6.455c1.489-1.986 3.31-3.669 5.461-5.048 2.152-1.379 4.91-2.069 8.275-2.069 2.869 0 5.558.676 8.068 2.028 2.51 1.351 4.551 3.365 6.123 6.04 1.572 2.676 2.358 5.972 2.358 9.888v24.08h-6.206V43.773c0-3.751-1.075-6.772-3.227-9.061-2.151-2.289-4.937-3.434-8.357-3.434-2.317 0-4.413.524-6.289 1.572-1.876 1.048-3.379 2.524-4.51 4.427-1.131 1.903-1.696 4.096-1.696 6.579v23.831h-6.206Zm64.625.662c-4.137 0-7.723-.952-10.757-2.855s-5.392-4.482-7.075-7.737c-1.682-3.255-2.523-6.84-2.523-10.757 0-3.972.841-7.571 2.523-10.798 1.683-3.228 4.041-5.793 7.075-7.696 3.034-1.903 6.62-2.855 10.757-2.855 4.91 0 9.089 1.269 12.537 3.807 3.447 2.537 5.778 5.819 6.992 9.847h-6.703c-.938-2.373-2.441-4.303-4.509-5.793-2.069-1.489-4.565-2.234-7.489-2.234-3.034 0-5.682.717-7.944 2.151-2.262 1.435-3.999 3.338-5.213 5.71-1.213 2.372-1.82 4.992-1.82 7.861 0 2.813.607 5.42 1.82 7.82 1.214 2.399 2.951 4.316 5.213 5.751 2.262 1.434 4.91 2.151 7.944 2.151 2.924 0 5.42-.745 7.489-2.234 2.068-1.49 3.571-3.42 4.509-5.793h6.703c-1.214 4.028-3.545 7.31-6.992 9.847-3.448 2.538-7.627 3.807-12.537 3.807Zm44.684 0c-4.027 0-7.544-.952-10.55-2.855-3.007-1.903-5.338-4.482-6.992-7.737-1.655-3.255-2.483-6.84-2.483-10.757 0-3.972.828-7.571 2.483-10.798 1.654-3.228 3.985-5.793 6.992-7.696 3.006-1.903 6.523-2.855 10.55-2.855 3.42 0 6.358.662 8.812 1.986 2.455 1.324 4.455 3.117 6 5.379v-6.703h6.206v41.374h-6.206v-6.62c-1.545 2.207-3.545 3.972-6 5.296-2.454 1.324-5.392 1.986-8.812 1.986Zm.827-5.627c3.09 0 5.696-.717 7.82-2.151 2.124-1.435 3.737-3.352 4.841-5.751 1.103-2.4 1.655-5.007 1.655-7.82 0-2.869-.552-5.489-1.655-7.861-1.104-2.372-2.717-4.275-4.841-5.71-2.124-1.434-4.73-2.151-7.82-2.151-3.034 0-5.654.717-7.861 2.151-2.206 1.435-3.889 3.338-5.047 5.71-1.159 2.372-1.738 4.992-1.738 7.861 0 2.813.579 5.42 1.738 7.82 1.158 2.399 2.841 4.316 5.047 5.751 2.207 1.434 4.827 2.151 7.861 2.151Zm46.008 5.627c-3.807 0-7.02-.635-9.64-1.903-2.621-1.269-4.62-2.938-5.999-5.007-1.38-2.068-2.152-4.316-2.317-6.744h6.454c.165 1.38.648 2.717 1.448 4.014.8 1.296 2.027 2.344 3.682 3.144 1.655.8 3.807 1.2 6.455 1.2.827 0 1.848-.083 3.061-.248 1.214-.166 2.386-.469 3.517-.911 1.131-.441 2.082-1.103 2.855-1.985.772-.883 1.158-2.014 1.158-3.393 0-1.71-.662-3.034-1.986-3.972-1.324-.938-3.034-1.669-5.13-2.193s-4.317-1.034-6.661-1.531c-2.345-.496-4.565-1.144-6.661-1.944-2.097-.8-3.807-1.931-5.131-3.393-1.324-1.462-1.986-3.461-1.986-5.999 0-3.751 1.366-6.661 4.096-8.73 2.731-2.068 6.772-3.103 12.123-3.103 3.641 0 6.606.566 8.895 1.697 2.289 1.13 4.027 2.579 5.213 4.344 1.186 1.765 1.89 3.668 2.11 5.709h-6.289c-.22-1.765-1.089-3.282-2.606-4.551-1.517-1.269-4.013-1.903-7.489-1.903-6.564 0-9.847 1.986-9.847 5.958 0 1.655.662 2.924 1.986 3.806 1.324.883 3.034 1.586 5.131 2.11 2.096.524 4.316 1.021 6.661 1.49 2.344.469 4.565 1.117 6.661 1.944 2.096.828 3.806 2 5.13 3.517 1.324 1.517 1.986 3.572 1.986 6.165 0 4.027-1.531 7.102-4.592 9.226-3.062 2.124-7.158 3.186-12.288 3.186Zm43.194 0c-4.193 0-7.861-.952-11.006-2.855-3.144-1.903-5.585-4.482-7.323-7.737-1.737-3.255-2.606-6.84-2.606-10.757 0-3.972.827-7.571 2.482-10.798 1.655-3.228 4.027-5.793 7.116-7.696 3.09-1.903 6.73-2.855 10.923-2.855 4.248 0 7.902.952 10.964 2.855 3.062 1.903 5.42 4.468 7.075 7.696 1.655 3.227 2.482 6.826 2.482 10.798v2.482h-34.671c.331 2.428 1.117 4.648 2.359 6.662 1.241 2.013 2.909 3.613 5.006 4.799 2.096 1.186 4.523 1.779 7.281 1.779 2.924 0 5.379-.648 7.365-1.945 1.986-1.296 3.531-2.965 4.634-5.006h6.785c-1.434 3.696-3.71 6.716-6.827 9.061-3.116 2.344-7.13 3.517-12.039 3.517ZM259.462 43.69h28.134c-.552-3.53-2.041-6.482-4.468-8.854-2.428-2.372-5.627-3.558-9.599-3.558-3.972 0-7.158 1.186-9.557 3.558-2.4 2.372-3.903 5.324-4.51 8.854Z"/></svg>