<?xml version="1.0" encoding="UTF-8"?><svg xmlns="http://www.w3.org/2000/svg" viewBox="0 0 143.8 143.8"><defs><style>.cls-1{fill:#6552e9;}.cls-2{fill:#fff;}.cls-3{fill:#5745d7;}.cls-4{stroke-miterlimit:10;}.cls-4,.cls-5,.cls-6{fill:#333;}.cls-4,.cls-6{stroke:#333;}.cls-7{fill:#4839b6;}.cls-8{fill:#464646;}.cls-6{fill-rule:evenodd;stroke-linecap:round;stroke-linejoin:round;stroke-width:3px;}.cls-9{fill:#7f6ef3;}.cls-10{fill:#191919;}.cls-11{fill:#545454;}</style></defs><g id="Rust"><circle class="cls-2" cx="71.89" cy="71.81" r="62.63"/><path class="cls-4" d="M71.9,6.33C35.75,6.33,6.33,35.76,6.33,71.9s29.44,65.57,65.57,65.57,65.57-29.44,65.57-65.57S108.04,6.33,71.9,6.33Zm-.22,5.82s.08,0,.13,0c2.33,.06,4.19,1.97,4.19,4.31,0,2.38-1.93,4.31-4.31,4.31s-4.31-1.93-4.31-4.31c0-2.38,1.93-4.32,4.31-4.32ZM15.93,55.51c0-2.38,1.93-4.32,4.31-4.32,.04,0,.08,0,.13,0,2.33,.07,4.19,1.98,4.19,4.31,0,2.38-1.93,4.31-4.32,4.31-2.38,0-4.31-1.93-4.31-4.31Zm23.8,65.06c-2.38,0-4.31-1.93-4.31-4.31,0-2.38,1.93-4.32,4.31-4.32,.04,0,.08,0,.13,0,2.33,.07,4.19,1.98,4.19,4.31,0,2.38-1.93,4.31-4.31,4.31Zm63.88,.19c-2.38,0-4.31-1.93-4.31-4.31,0-2.38,1.93-4.32,4.31-4.32,.04,0,.08,0,.13,0,2.33,.07,4.19,1.98,4.19,4.31,0,2.38-1.93,4.31-4.31,4.31Zm21.24-45.7c-.35,10.16-4.68,19.46-10.2,27.89-1.5,2.01-3.14,3.91-4.91,5.69l-9.11-1.96c-2.12-.46-4.22,.9-4.67,3.02l-2.16,10.1c-14.08,6.38-30.25,6.3-44.27-.21l-2.16-10.1c-.46-2.12-2.54-3.48-4.66-3.02l-8.92,1.91c-1.66-1.71-3.19-3.52-4.61-5.44-3.77-5.57-6.46-10.52-8.34-16.97-1.87-6.58-2.46-13.46-1.72-20.27l9.29-4.13c1.98-.89,2.89-3.2,2-5.19l-1.91-4.31h0c-.84-1.42-1.38-3.39-2.8-4.81,1.83-4.59,3.83-8.06,7.04-11.66,7.75-8.47,18.03-14.21,29.32-16.35l6.64,6.96c1.5,1.57,3.98,1.64,5.55,.12l7.44-7.09c15.33,2.87,28.62,12.34,36.35,25.89l-5.09,11.49c-.87,1.98,.03,4.31,2,5.2l9.79,4.34c.29,2.95,.33,5.93,.13,8.89Zm-1.75-15.05c-2.38,0-4.31-1.93-4.31-4.31,0-2.38,1.93-4.32,4.31-4.32,.04,0,.08,0,.13,0,2.33,.07,4.19,1.98,4.19,4.31,0,2.38-1.93,4.31-4.31,4.31Z"/><path class="cls-6" d="M133.81,71.9c0,34.19-27.72,61.91-61.91,61.91S9.99,106.1,9.99,71.9h0c0-34.19,27.72-61.91,61.91-61.91s61.91,27.72,61.91,61.91h0Zm-1.17-5.98l9.66,5.98-9.66,5.98,8.3,7.75-10.63,3.98,6.63,9.23-11.22,1.83,4.72,10.35-11.36-.4,2.61,11.07-11.07-2.61,.4,11.36-10.35-4.72-1.83,11.22-9.23-6.63-3.98,10.63-7.75-8.3-5.98,9.66-5.98-9.66-7.75,8.3-3.98-10.63-9.23,6.63-1.83-11.22-10.35,4.72,.4-11.36-11.07,2.61,2.61-11.07-11.36,.4,4.72-10.35-11.22-1.83,6.63-9.23-10.63-3.98,8.3-7.75-9.66-5.98,9.66-5.98-8.3-7.75,10.63-3.98-6.63-9.23,11.22-1.83-4.72-10.35,11.36,.4-2.61-11.07,11.07,2.61-.4-11.36,10.35,4.72,1.83-11.22,9.23,6.63,3.98-10.63,7.75,8.3,5.98-9.66,5.98,9.66,7.75-8.3,3.98,10.63,9.23-6.63,1.83,11.22,10.35-4.72-.4,11.36,11.07-2.61-2.61,11.07,11.36-.4-4.72,10.35,11.22,1.83-6.63,9.23,10.63,3.98-8.3,7.75Z"/></g><g id="Layer_2"><g transform="matrix( 1, 0, 0, 1, 0,0) "><g id="Layer0_68_FILL"><path class="cls-11" d="M89.08,106.87l15.3,4.1c3.37,.8,6.08,.48,8.15-.95l-15.45-4.15c-2.03,1.43-4.7,1.77-8,1m27.2-3.05l.8-2.9-15.45-4.15-.8,2.9,15.45,4.15m.7-22.9c-1.07-.77-2.43-1.37-4.1-1.8l-14.7-3.95c1.3,.4,2.42,.95,3.35,1.65,1.17,.8,2.02,1.78,2.55,2.95l15.45,4.15c-.53-1.17-1.38-2.17-2.55-3m1.9,13.25l.8-2.9-15.45-4.15-.8,2.9,15.45,4.15Z"/><path class="cls-5" d="M101.53,76.82c-.93-.7-2.05-1.25-3.35-1.65l-15.55-4.2c-6.47-1.7-10.55,.63-12.25,7l-3.4,12.7c-1.7,6.4,.68,10.45,7.15,12.15l14.95,4.05c3.3,.77,5.97,.43,8-1,1.73-1.2,2.98-3.25,3.75-6.15v-.05l.8-2.9,1.8-6.75,.8-2.9v-.1c.77-2.87,.72-5.28-.15-7.25-.53-1.17-1.38-2.15-2.55-2.95m-5.25,2.95c.9,.3,1.65,.65,2.25,1.05l.05,.05c1.13,1.07,1.4,2.68,.8,4.85l-3.4,12.7c-.8,3.03-2.68,4.23-5.65,3.6l-14.95-4.05c-3.23-.87-4.42-2.88-3.55-6.05l3.4-12.7c.87-3.17,2.92-4.32,6.15-3.45l14.9,4Z"/><path class="cls-10" d="M98.53,80.82c-.6-.4-1.35-.75-2.25-1.05l-14.9-4c-3.23-.87-5.28,.28-6.15,3.45l-3.4,12.7c-.87,3.17,.32,5.18,3.55,6.05l14.95,4.05c2.97,.63,4.85-.57,5.65-3.6l3.4-12.7c.6-2.17,.33-3.78-.8-4.85l-.05-.05Z"/><path class="cls-8" d="M117.08,100.92l1.8-6.75-15.45-4.15-1.8,6.75,15.45,4.15m-.8,2.95v-.05l-15.45-4.15v.05c-.77,2.9-2.02,4.95-3.75,6.15l15.45,4.15c1.73-1.2,2.98-3.25,3.75-6.15m3.4-12.7c.77-2.87,.72-5.28-.15-7.25l-15.45-4.15c.87,1.97,.92,4.38,.15,7.25v.1l15.45,4.15v-.1Z"/></g></g><g transform="matrix( 1, 0, 0, 1, 0,0) "><g id="Layer0_69_FILL"><path class="cls-1" d="M85.58,33.37c-1.57-1.9-4.02-2.9-7.35-3H34.98c-.5,0-.97,.03-1.4,.1-5.33,.63-8,3.93-8,9.9v2.5c.07-2.1,.48-3.83,1.25-5.2,.9-1.77,2.35-2.98,4.35-3.65,.4-.13,.8-.25,1.2-.35s.8-.17,1.2-.2c.43-.07,.9-.1,1.4-.1h50.6m29,9.65c-.1-4.77-1.95-7.77-5.55-9-1.27-.43-2.75-.65-4.45-.65h-19c1.27,1.6,1.93,3.8,2,6.6v44.8c-.13,6.2-3.25,9.4-9.35,9.6h26.35c6.53,0,9.87-3.2,10-9.6V43.02Z"/><path class="cls-3" d="M87.58,39.97c-.07-2.8-.73-5-2-6.6H34.98c-.5,0-.97,.03-1.4,.1-.4,.03-.8,.1-1.2,.2s-.8,.22-1.2,.35c-2,.67-3.45,1.88-4.35,3.65-.77,1.37-1.18,3.1-1.25,5.2v41.9c.13,5.7,2.8,8.87,8,9.5,.43,.07,.9,.1,1.4,.1h43.25c6.1-.2,9.22-3.4,9.35-9.6V39.97Z"/><path class="cls-9" d="M109.03,34.02c3.6,1.23,5.45,4.23,5.55,9v-2.65c0-6.67-3.33-10-10-10h-26.35c3.33,.1,5.78,1.1,7.35,3h19c1.7,0,3.18,.22,4.45,.65Z"/></g></g><g transform="matrix( 1, 0, 0, 1, 0,0) "><g id="Layer0_70_FILL"><path class="cls-2" d="M111.63,57.42c-.7-.67-1.52-1-2.45-1h-.1c-.93,0-1.75,.33-2.45,1-.67,.7-1,1.53-1,2.5s.33,1.78,1,2.45c.7,.7,1.52,1.05,2.45,1.05h.1c.93,0,1.75-.35,2.45-1.05,.67-.67,1-1.48,1-2.45s-.33-1.8-1-2.5Z"/></g></g><g transform="matrix( 1, 0, 0, 1, 0,0) "><g id="Layer0_71_FILL"><path class="cls-2" d="M94.08,56.42c-.93,0-1.75,.33-2.45,1-.67,.7-1,1.53-1,2.5s.33,1.78,1,2.45c.7,.7,1.52,1.05,2.45,1.05h.1c.93,0,1.75-.35,2.45-1.05,.67-.67,1-1.48,1-2.45s-.33-1.8-1-2.5c-.7-.67-1.52-1-2.45-1h-.1Z"/></g></g><g transform="matrix( 1, 0, 0, 1, 0,0) "><g id="Layer0_72_FILL"><path class="cls-3" d="M106.63,70.42v-5h-9v5h9Z"/></g></g><g transform="matrix( 1, 0, 0, 1, 0,0) "><g id="Layer0_73_FILL"><path class="cls-7" d="M72.63,46.42h-3v20h3v-20m-5,0h-3v20h3v-20m10,0h-3v20h3v-20Z"/></g></g><g transform="matrix( 1, 0, 0, 1, 0,0) "><g id="Layer0_74_MEMBER_0_FILL"><path class="cls-11" d="M64.63,103.22l15.3-4.1c3.37-.97,5.58-2.58,6.65-4.85l-15.45,4.15c-1.07,2.23-3.23,3.83-6.5,4.8m19.45-25.9l-.8-2.9-15.45,4.15,.8,2.9,15.45-4.15m2.6,9.65l-.8-2.9-15.45,4.15,.8,2.9,15.45-4.15m-10.85-20.1c-1.3-.13-2.77,0-4.4,.4l-15.3,4.1c1.57-.37,2.98-.5,4.25-.4,1.43,.17,2.68,.63,3.75,1.4l15.45-4.15c-1.07-.77-2.32-1.22-3.75-1.35Z"/><path class="cls-8" d="M84.08,77.32l-15.45,4.15,1.8,6.75,15.45-4.15-1.8-6.75m-.8-2.9v-.1c-.77-2.87-2-4.9-3.7-6.1l-15.45,4.15c1.7,1.2,2.93,3.23,3.7,6.1v.1l15.45-4.15m3.4,12.6v-.05l-15.45,4.15v.05c.77,2.9,.73,5.32-.1,7.25l15.45-4.15c.83-1.93,.87-4.35,.1-7.25Z"/><path class="cls-5" d="M60.38,70.97c-1.27-.1-2.68,.03-4.25,.4l-25.6,6.9c-6.43,1.7-8.8,5.73-7.1,12.1l3.4,12.7c1.7,6.4,5.77,8.75,12.2,7.05l25.6-6.9c3.27-.97,5.43-2.57,6.5-4.8,.83-1.93,.87-4.35,.1-7.25v-.05l-.8-2.9-1.8-6.75-.8-2.9v-.1c-.77-2.87-2-4.9-3.7-6.1-1.07-.77-2.32-1.23-3.75-1.4m-3.05,5.25c.97-.23,1.8-.32,2.5-.25h.1c1.47,.37,2.5,1.63,3.1,3.8l3.4,12.7c.8,3.03-.23,5.02-3.1,5.95l-25.6,6.9c-.4,.1-.77,.17-1.1,.2-2.57,.27-4.22-.98-4.95-3.75l-3.4-12.7c-.73-2.73,.07-4.6,2.4-5.6,.33-.17,.7-.3,1.1-.4l25.55-6.85Z"/><path class="cls-10" d="M59.83,75.97c-.7-.07-1.53,.02-2.5,.25l-25.55,6.85c-.4,.1-.77,.23-1.1,.4-2.33,1-3.13,2.87-2.4,5.6l3.4,12.7c.73,2.77,2.38,4.02,4.95,3.75,.33-.03,.7-.1,1.1-.2l25.6-6.9c2.87-.93,3.9-2.92,3.1-5.95l-3.4-12.7c-.6-2.17-1.63-3.43-3.1-3.8h-.1Z"/></g></g><g transform="matrix( 1, 0, 0, 1, 0,0) "><g id="Layer0_74_MEMBER_1_FILL"><path class="cls-11" d="M41.63,96.52c.37-1.13,.38-2.37,.05-3.7-.37-1.33-1-2.38-1.9-3.15-.9-.73-1.82-.98-2.75-.75-.9,.27-1.6,.95-2.1,2.05-.37,1.13-.37,2.37,0,3.7,.33,1.33,.95,2.38,1.85,3.15,.97,.77,1.9,1.02,2.8,.75,.93-.23,1.62-.92,2.05-2.05m12.6-7.05c.33,1.33,.97,2.4,1.9,3.2,.93,.73,1.85,.98,2.75,.75,.93-.27,1.62-.95,2.05-2.05,.4-1.13,.43-2.37,.1-3.7-.37-1.33-1.02-2.38-1.95-3.15-.9-.77-1.82-1.02-2.75-.75-.9,.23-1.58,.92-2.05,2.05-.4,1.1-.42,2.32-.05,3.65m-9.6-1.05c-.4,1.1-.42,2.32-.05,3.65,.33,1.33,.97,2.4,1.9,3.2,.93,.73,1.85,.98,2.75,.75,.93-.27,1.62-.95,2.05-2.05,.37-1.13,.38-2.37,.05-3.7-.37-1.33-1-2.38-1.9-3.15-.9-.77-1.82-1.02-2.75-.75-.9,.23-1.58,.92-2.05,2.05Z"/></g></g><path class="cls-2" d="M30.22,38.22h2.95l2.02,10.74h.04l2.42-10.74h2.76l2.19,10.87h.04l2.3-10.87h2.9l-3.76,15.78h-2.93l-2.17-10.74h-.06l-2.32,10.74h-2.99l-3.39-15.78Zm20.95,0h4.66l4.63,15.78h-3.05l-1.01-3.51h-5.31l-.78,3.51h-2.97l3.82-15.78Zm1.77,3.89l-1.29,5.79h4.01l-1.48-5.79h-1.24Z"/></g></svg>
