<svg xmlns="http://www.w3.org/2000/svg" xmlns:xlink="http://www.w3.org/1999/xlink" width="106" height="106"><style>@media (prefers-color-scheme:dark){svg{color:#fff}}</style><defs><mask id="b"><path fill="#fff" d="M-60-60H60V60H-60z"/><circle id="a" cx="0" cy="-40" r="3"/><use xlink:href="#a" transform="rotate(72)"/><use xlink:href="#a" transform="rotate(144)"/><use xlink:href="#a" transform="rotate(-144)"/><use xlink:href="#a" transform="rotate(-72)"/></mask></defs><g style="display:inline;mix-blend-mode:normal"><g mask="url(#b)" transform="translate(53 53)"><circle r="43" fill="none" stroke="currentColor" stroke-width="9"/><path id="c" fill="currentColor" stroke="currentColor" stroke-linejoin="round" stroke-width="3" d="m51 0-5-3v6z"/><use xlink:href="#c" transform="rotate(11.25)"/><use xlink:href="#c" transform="rotate(22.5)"/><use xlink:href="#c" transform="rotate(33.75)"/><use xlink:href="#c" transform="rotate(45)"/><use xlink:href="#c" transform="rotate(56.25)"/><use xlink:href="#c" transform="rotate(67.5)"/><use xlink:href="#c" transform="rotate(78.75)"/><use xlink:href="#c" transform="rotate(90)"/><use xlink:href="#c" transform="rotate(101.25)"/><use xlink:href="#c" transform="rotate(112.5)"/><use xlink:href="#c" transform="rotate(123.75)"/><use xlink:href="#c" transform="rotate(135)"/><use xlink:href="#c" transform="rotate(146.25)"/><use xlink:href="#c" transform="rotate(157.5)"/><use xlink:href="#c" transform="rotate(168.75)"/><use xlink:href="#c" transform="scale(-1)"/><use xlink:href="#c" transform="rotate(-168.75)"/><use xlink:href="#c" transform="rotate(-157.5)"/><use xlink:href="#c" transform="rotate(-146.25)"/><use xlink:href="#c" transform="rotate(-135)"/><use xlink:href="#c" transform="rotate(-123.75)"/><use xlink:href="#c" transform="rotate(-112.5)"/><use xlink:href="#c" transform="rotate(-101.25)"/><use xlink:href="#c" transform="rotate(-90)"/><use xlink:href="#c" transform="rotate(-78.75)"/><use xlink:href="#c" transform="rotate(-67.5)"/><use xlink:href="#c" transform="rotate(-56.25)"/><use xlink:href="#c" transform="rotate(-45)"/><use xlink:href="#c" transform="rotate(-33.75)"/><use xlink:href="#c" transform="rotate(-22.5)"/><use xlink:href="#c" transform="rotate(-11.25)"/><path id="d" stroke="currentColor" stroke-linejoin="round" stroke-width="6" d="m0-35 7-7H-7z"/><use xlink:href="#d" transform="rotate(72)"/><use xlink:href="#d" transform="rotate(144)"/><use xlink:href="#d" transform="rotate(-144)"/><use xlink:href="#d" transform="rotate(-72)"/></g><path d="M258.443 46.409a4.9 4.9 0 0 1 2 .373c3.588 1.481 7.324 7.713 9.76 13.166s3.57 10.13 3.678 14.527c.107 4.399-.812 8.516-2.824 10.575-2.013 2.058-5.114 2.052-7.684-.106s-4.563-6.368-8.025-8.992-8.074-3.424-12.85-3.424-9.443.8-12.936 3.424-5.486 6.835-8.056 8.992-5.671 2.164-7.684.106-2.93-6.176-2.824-10.575 1.242-9.074 3.678-14.527 6.172-11.685 9.76-13.166 7.026 1.788 10.001 3.68c2.976 1.891 5.248 2.355 8.002 2.355s5.148-.49 8.063-2.369c2.369-1.527 5.083-3.97 7.941-4.04m-33.172 7.44a2.5 2.5 0 0 0-2.5 2.5 2.5 2.5 0 0 0 2.5 2.5 2.5 2.5 0 0 0 2.5-2.5 2.5 2.5 0 0 0-2.5-2.5m35.793 1.3h-2.492a.15.15 0 0 0-.15.15v4.647a.15.15 0 0 1-.15.15h-4.645a.15.15 0 0 0-.15.15v2.493c0 .083.067.15.15.15h4.644a.15.15 0 0 1 .15.15v4.645c0 .084.068.15.151.15h2.492a.15.15 0 0 0 .15-.15v-4.656a.15.15 0 0 1 .151-.15h4.645q.018 0 .035.004a.15.15 0 0 0 .115-.143v-2.492a.15.15 0 0 0-.15-.15h-4.645a.15.15 0 0 1-.15-.151V55.3a.15.15 0 0 0-.15-.15m-30.816 3.621a2.5 2.5 0 0 0-2.5 2.5 2.5 2.5 0 0 0 2.5 2.5 2.5 2.5 0 0 0 2.5-2.5 2.5 2.5 0 0 0-2.5-2.5m-9.951 0a2.5 2.5 0 0 0-2.5 2.5 2.5 2.5 0 0 0 2.5 2.5 2.5 2.5 0 0 0 2.5-2.5 2.5 2.5 0 0 0-2.5-2.5m4.974 4.95a2.5 2.5 0 0 0-2.5 2.5 2.5 2.5 0 0 0 2.5 2.5 2.5 2.5 0 0 0 2.5-2.5 2.5 2.5 0 0 0-2.5-2.5m24.551 1.04h-4.676a.155.155 0 0 0-.156.157v2.605c0 .087.07.156.156.156h4.676a.157.157 0 0 0 .158-.156v-2.605a.157.157 0 0 0-.158-.157m-9.888 0h-4.024a.157.157 0 0 0-.158.157v2.605c0 .087.071.156.158.156h4.024a.155.155 0 0 0 .156-.156v-2.605a.155.155 0 0 0-.156-.157" style="display:inline;opacity:1;mix-blend-mode:normal;fill:currentColor;fill-opacity:1;stroke-width:5.31402" transform="matrix(-1 0 0 1 295.44 -13.493)"/></g></svg>
