<svg xmlns="http://www.w3.org/2000/svg" xmlns:xlink="http://www.w3.org/1999/xlink" xml:space="preserve" width="106" height="106"><defs><mask id="b"><path fill="#fff" d="M-60-60H60V60H-60z"/><circle id="a" cx="0" cy="-40" r="3"/><use xlink:href="#a" transform="rotate(72)"/><use xlink:href="#a" transform="rotate(144)"/><use xlink:href="#a" transform="rotate(-144)"/><use xlink:href="#a" transform="rotate(-72)"/></mask></defs><g style="display:inline;mix-blend-mode:normal"><g mask="url(#b)" transform="translate(53 53)"><circle r="43" fill="none" stroke="#000" stroke-width="9"/><path id="c" stroke="#000" stroke-linejoin="round" stroke-width="3" d="m51 0-5-3v6z"/><use xlink:href="#c" transform="rotate(11.25)"/><use xlink:href="#c" transform="rotate(22.5)"/><use xlink:href="#c" transform="rotate(33.75)"/><use xlink:href="#c" transform="rotate(45)"/><use xlink:href="#c" transform="rotate(56.25)"/><use xlink:href="#c" transform="rotate(67.5)"/><use xlink:href="#c" transform="rotate(78.75)"/><use xlink:href="#c" transform="rotate(90)"/><use xlink:href="#c" transform="rotate(101.25)"/><use xlink:href="#c" transform="rotate(112.5)"/><use xlink:href="#c" transform="rotate(123.75)"/><use xlink:href="#c" transform="rotate(135)"/><use xlink:href="#c" transform="rotate(146.25)"/><use xlink:href="#c" transform="rotate(157.5)"/><use xlink:href="#c" transform="rotate(168.75)"/><use xlink:href="#c" transform="scale(-1)"/><use xlink:href="#c" transform="rotate(-168.75)"/><use xlink:href="#c" transform="rotate(-157.5)"/><use xlink:href="#c" transform="rotate(-146.25)"/><use xlink:href="#c" transform="rotate(-135)"/><use xlink:href="#c" transform="rotate(-123.75)"/><use xlink:href="#c" transform="rotate(-112.5)"/><use xlink:href="#c" transform="rotate(-101.25)"/><use xlink:href="#c" transform="rotate(-90)"/><use xlink:href="#c" transform="rotate(-78.75)"/><use xlink:href="#c" transform="rotate(-67.5)"/><use xlink:href="#c" transform="rotate(-56.25)"/><use xlink:href="#c" transform="rotate(-45)"/><use xlink:href="#c" transform="rotate(-33.75)"/><use xlink:href="#c" transform="rotate(-22.5)"/><use xlink:href="#c" transform="rotate(-11.25)"/><path id="d" stroke="#000" stroke-linejoin="round" stroke-width="6" d="m0-35 7-7H-7z"/><use xlink:href="#d" transform="rotate(72)"/><use xlink:href="#d" transform="rotate(144)"/><use xlink:href="#d" transform="rotate(-144)"/><use xlink:href="#d" transform="rotate(-72)"/></g><g style="display:inline;mix-blend-mode:normal"><path d="M258.444 46.408a4.9 4.9 0 0 1 2 .373c3.587 1.481 7.324 7.713 9.76 13.166s3.57 10.13 3.677 14.527c.107 4.399-.814 8.518-2.826 10.577s-5.113 2.052-7.683-.106-4.561-6.368-8.024-8.992-8.073-3.424-12.85-3.424-9.444.8-12.937 3.424-5.484 6.835-8.055 8.992-5.671 2.164-7.683.106-2.933-6.178-2.826-10.577c.107-4.398 1.241-9.073 3.677-14.527s6.174-11.685 9.762-13.166 7.026 1.788 10.002 3.68 5.247 2.357 8.002 2.357c2.754 0 5.147-.49 8.062-2.369 2.37-1.527 5.083-3.973 7.942-4.041m-33.172 7.44a2.5 2.5 0 0 0-2.5 2.5 2.5 2.5 0 0 0 2.5 2.5 2.5 2.5 0 0 0 2.5-2.5 2.5 2.5 0 0 0-2.5-2.5m35.793 1.3h-2.492a.15.15 0 0 0-.15.15v4.647a.15.15 0 0 1-.151.15h-4.645a.15.15 0 0 0-.15.15v2.493c0 .083.067.15.15.15h4.645a.15.15 0 0 1 .15.15v4.645c0 .084.068.15.15.15h2.493a.15.15 0 0 0 .15-.15v-4.656a.15.15 0 0 1 .15-.15h4.645q.018 0 .035.004a.15.15 0 0 0 .116-.143v-2.492a.15.15 0 0 0-.15-.15h-4.646a.15.15 0 0 1-.15-.15v-4.647a.15.15 0 0 0-.15-.15m-30.816 3.623a2.5 2.5 0 0 0-2.5 2.5 2.5 2.5 0 0 0 2.5 2.5 2.5 2.5 0 0 0 2.5-2.5 2.5 2.5 0 0 0-2.5-2.5m-9.952 0a2.5 2.5 0 0 0-2.5 2.5 2.5 2.5 0 0 0 2.5 2.5 2.5 2.5 0 0 0 2.5-2.5 2.5 2.5 0 0 0-2.5-2.5m4.975 4.948a2.5 2.5 0 0 0-2.5 2.5 2.5 2.5 0 0 0 2.5 2.5 2.5 2.5 0 0 0 2.5-2.5 2.5 2.5 0 0 0-2.5-2.5m24.55 1.04h-4.675a.155.155 0 0 0-.156.157v2.605c0 .087.069.159.156.159h4.676a.157.157 0 0 0 .156-.159v-2.605a.155.155 0 0 0-.156-.156m-10.09 0h-4.675a.157.157 0 0 0-.158.157v2.605c0 .087.071.159.158.159h4.676a.157.157 0 0 0 .156-.159v-2.605a.155.155 0 0 0-.156-.156" style="display:inline;opacity:1;fill:#000;fill-opacity:1;stroke-width:5.31402" transform="matrix(-1 0 0 1 295.395 -13.492)"/></g></g></svg>