<?xml version="1.0" encoding="UTF-8" standalone="no"?>
<svg width="521.81561" height="521.81561" viewBox="0 0 521.81561 521.81561" version="1.1" id="svg484" sodipodi:docname="inox_logo.svg" inkscape:version="1.2.1 (9c6d41e410, 2022-07-14, custom)" xmlns:inkscape="http://www.inkscape.org/namespaces/inkscape" xmlns:sodipodi="http://sodipodi.sourceforge.net/DTD/sodipodi-0.dtd" xmlns:xlink="http://www.w3.org/1999/xlink" xmlns="http://www.w3.org/2000/svg" xmlns:svg="http://www.w3.org/2000/svg">
  <sodipodi:namedview id="namedview486" pagecolor="#ffffff" bordercolor="#000000" borderopacity="0.25" inkscape:showpageshadow="2" inkscape:pageopacity="0.0" inkscape:pagecheckerboard="0" inkscape:deskcolor="#d1d1d1" showgrid="false" inkscape:zoom="0.87327688" inkscape:cx="268.52881" inkscape:cy="170.62172" inkscape:window-width="1920" inkscape:window-height="1036" inkscape:window-x="0" inkscape:window-y="44" inkscape:window-maximized="1" inkscape:current-layer="svg484"/>
  <defs id="defs466">
    <linearGradient id="linearGradient4079" x1="249.7468" x2="170.72848" y1="235.15024" y2="136.38463" gradientTransform="scale(1.0860849,0.92073835)" gradientUnits="userSpaceOnUse">
      <stop offset="0" stop-color="#565FE3" id="stop4073" style="stop-color:#3c41a2;stop-opacity:1;"/>
      <stop offset="0.56032002" stop-color="#B972ED" id="stop4075" style="stop-color:#9c61c7;stop-opacity:1;"/>
      <stop offset="0.78016001" stop-color="#B972ED" id="stop4083" style="stop-color:#f35db7;stop-opacity:1;"/>
      <stop offset="1" stop-color="#F45DBA" id="stop4077" style="stop-color:#f49d5d;stop-opacity:1;"/>
    </linearGradient>
    <linearGradient id="linearGradient4071" x1="10.651626" x2="167.62296" y1="74.073204" y2="86.238485" gradientTransform="scale(1.7837652,0.56061191)" gradientUnits="userSpaceOnUse">
      <stop offset="0%" stop-color="#F49D5D" id="stop4065"/>
      <stop offset="0.37016466" stop-color="#F45DBA" id="stop4067"/>
      <stop offset="100%" stop-color="#886DDB" id="stop4069"/>
    </linearGradient>
    <linearGradient id="logo_transparent-a" x1="10.651626" x2="167.62296" y1="74.073204" y2="86.238485" gradientTransform="scale(1.7837652,0.56061191)" gradientUnits="userSpaceOnUse">
      <stop offset="0%" stop-color="#F49D5D" id="stop427"/>
      <stop offset="43.379%" stop-color="#F45DBA" id="stop429"/>
      <stop offset="100%" stop-color="#886DDB" id="stop431"/>
    </linearGradient>
    <linearGradient id="logo_transparent-b" x1="115.2352" x2="53.726025" y1="139.4274" y2="139.75211" gradientTransform="scale(1.9364917,0.51639778)" gradientUnits="userSpaceOnUse">
      <stop offset="0%" stop-color="#3A32EC" id="stop434"/>
      <stop offset="100%" stop-color="#9361FF" id="stop436"/>
    </linearGradient>
    <linearGradient id="logo_transparent-c" x1="61.425645" x2="61.425645" y1="89.378629" y2="169.88794" gradientTransform="scale(0.73227559,1.3656061)" gradientUnits="userSpaceOnUse">
      <stop offset="0%" stop-color="#3932EC" id="stop439"/>
      <stop offset="100%" stop-color="#8446FF" id="stop441"/>
    </linearGradient>
    <linearGradient id="logo_transparent-d" x1="251.7021" x2="251.7021" y1="83.545556" y2="167.65406" gradientTransform="scale(0.72264991,1.3837959)" gradientUnits="userSpaceOnUse">
      <stop offset="0%" stop-color="#3932EC" id="stop444"/>
      <stop offset="100%" stop-color="#8446FF" id="stop446"/>
    </linearGradient>
    <linearGradient id="logo_transparent-e" x1="249.7468" x2="170.72848" y1="235.15024" y2="136.38463" gradientTransform="scale(1.0860849,0.92073835)" gradientUnits="userSpaceOnUse">
      <stop offset="0%" stop-color="#565FE3" id="stop449"/>
      <stop offset="56.032%" stop-color="#B972ED" id="stop451"/>
      <stop offset="100%" stop-color="#F45DBA" id="stop453"/>
    </linearGradient>
    <linearGradient id="logo_transparent-f" x1="-2.9807136" x2="136.62838" y1="156.7421" y2="156.7421" gradientTransform="scale(1.1060147,0.90414711)" gradientUnits="userSpaceOnUse">
      <stop offset="0%" stop-color="#F4936B" id="stop456"/>
      <stop offset="100%" stop-color="#E25DF4" id="stop458"/>
    </linearGradient>
    <linearGradient id="logo_transparent-g" x1="0" x2="64.387735" y1="379.32572" y2="378.9741" gradientTransform="scale(2.0615528,0.48507125)" gradientUnits="userSpaceOnUse">
      <stop offset="0%" stop-color="#BF48FF" id="stop461"/>
      <stop offset="100%" stop-color="#8145FE" id="stop463"/>
    </linearGradient>
    <mask id="holes">
      <rect x="-60" y="-60" width="120" height="120" fill="#ffffff" id="rect80"/>
      <circle id="hole" cy="-40" r="3" cx="0"/>
      <use xlink:href="#hole" transform="rotate(72)" id="use83"/>
      <use xlink:href="#hole" transform="rotate(144)" id="use85"/>
      <use xlink:href="#hole" transform="rotate(-144)" id="use87"/>
      <use xlink:href="#hole" transform="rotate(-72)" id="use89"/>
    </mask>
    <linearGradient inkscape:collect="always" xlink:href="#linearGradient4079" id="linearGradient4063" x1="-52.501049" y1="-1.5450848e-08" x2="52.501049" y2="-1.5450848e-08" gradientUnits="userSpaceOnUse"/>
    <linearGradient inkscape:collect="always" xlink:href="#linearGradient4079" id="linearGradient4209" gradientUnits="userSpaceOnUse" x1="-49.74382" y1="-14.218941" x2="49.816833" y2="14.152352"/>
  </defs>
  <g fill="none" transform="translate(101.70974,138.22992)" id="g482" inkscape:label="logo">
    <polygon fill="url(#logo_transparent-a)" points="19,88 51,56 63.84,56 124.764,0 235.858,0 270.934,56 299,56 267,88 253.219,88 218.142,32 137.235,32 76.313,88 " id="polygon468" style="fill:url(#logo_transparent-a)"/>
    <polygon fill="url(#logo_transparent-b)" points="187,88 99,88 131,56 219,56 " id="polygon470" style="fill:url(#logo_transparent-b)"/>
    <polygon fill="url(#logo_transparent-c)" points="48.352,232 15.503,232 41.973,122.056 74.458,123.567 " id="polygon472" style="fill:url(#logo_transparent-c)"/>
    <polygon fill="url(#logo_transparent-d)" points="184.353,231.999 151.502,231.999 179.525,115.61 212.283,115.91 " id="polygon474" style="fill:url(#logo_transparent-d)"/>
    <polygon fill="url(#logo_transparent-e)" points="187,104 287.113,104 266.898,191.598 236.963,215.997 192.538,216 224.538,184 235.81,184 246.886,136 155,136 " id="polygon476" style="fill:url(#logo_transparent-e)"/>
    <polygon fill="url(#logo_transparent-f)" points="110.886,136 19,136 51,104 151.113,104 126.189,212 93.348,212 " id="polygon478" style="fill:url(#logo_transparent-f)"/>
    <polygon fill="url(#logo_transparent-g)" points="104,200 0,200 32,168 136,168 " id="polygon480" style="fill:url(#logo_transparent-g)"/>
  </g>
  <g id="gear" mask="url(#holes)" transform="matrix(4.9696861,0,0,4.9696861,260.90782,260.90782)" style="stroke:none;fill-opacity:1.0;fill:url(#linearGradient4063)">
    <path id="path4044" style="color:#000000;fill:url(#linearGradient4209);stroke-linejoin:round;-inkscape-stroke:none;stroke:none;fill-opacity:1" d="m -7,-45 a 3.0003,3.0003 0 0 0 -2.1210938,5.121094 l 7,7 a 3.0003,3.0003 0 0 0 4.2421876,0 l 7,-7 A 3.0003,3.0003 0 0 0 7,-45 Z m 7,10 7,-7 H -7 Z m -44.960662,27.7516309 a 3.0003,3.0003 0 0 0 4.214996,3.5997851 l 8.820514,-4.4942766 a 3.0003,3.0003 0 0 0 1.310908,-4.0345604 l -4.494276,-8.820514 a 3.0003,3.0003 0 0 0 -5.525904,0.434775 z m 11.673684,-3.5672259 -4.494277,-8.820514 -4.326238,13.3147909 z m 12.499761,51.335857 a 3.0003,3.0003 0 0 0 4.726104,-2.896305 l -1.548622,-9.777616 a 3.0003,3.0003 0 0 0 -3.432002,-2.493495 l -9.777616,1.548622 a 3.0003,3.0003 0 0 0 -1.294102,5.3898 z m 0.214733,-12.204667 -9.777616,1.548622 11.326238,8.228994 z m 52.685939,3.975673 a 3.0003,3.0003 45 0 0 -1.294102,-5.3898 l -9.777616,-1.548622 a 3.0003,3.0003 45 0 0 -3.432002,2.493495 l -1.548622,9.777616 a 3.0003,3.0003 45 0 0 4.726104,2.896305 z M 20.572484,28.315595 19.023862,38.093211 30.3501,29.864217 Z m 20.06194,-48.878755 a 3.0003,3.0003 0 0 0 -5.525904,-0.434775 l -4.494276,8.820514 a 3.0003,3.0003 0 0 0 1.310908,4.0345604 l 8.820514,4.4942766 a 3.0003,3.0003 0 0 0 4.214996,-3.5997851 z m 1.473069,14.2418419 -4.326238,-13.3147909 -4.494277,8.820514 z M 25.87166,37.387307 a 1.50015,1.50015 45 0 0 -1.510527,-0.0271 l -5.234976,2.931727 a 1.50015,1.50015 45 0 0 -0.0131,2.61077 l 5.060594,2.896616 a 1.50015,1.50015 45 0 0 2.245996,-1.257818 L 26.594026,38.71316 A 1.50015,1.50015 45 0 0 25.87166,37.387307 Z m -2.357118,3.885427 -0.01969,0.68035 -0.59038,-0.338697 z m 1.405141,3.224562 0.174382,-5.828343 -5.234976,2.931727 z M 32.668445,31.62161 a 1.50015,1.50015 0 0 0 -1.486789,0.268111 L 26.61922,35.78641 a 1.50015,1.50015 0 0 0 0.496485,2.56316 l 5.528459,1.853686 a 1.50015,1.50015 0 0 0 1.957451,-1.671821 L 33.635593,32.781061 A 1.50015,1.50015 0 0 0 32.668445,31.62161 Z m -1.553818,4.27062 0.113423,0.671118 -0.645113,-0.217012 z m 2.007223,2.888474 -0.966022,-5.750374 -4.562436,3.896689 z M 38.2098,24.640712 a 1.50015,1.50015 0 0 0 -1.405915,0.553018 l -3.714563,4.711902 a 1.50015,1.50015 0 0 0 0.986993,2.41705 l 5.783866,0.739519 a 1.50015,1.50015 0 0 0 1.593684,-2.021577 L 39.384562,25.589203 A 1.50015,1.50015 0 0 0 38.2098,24.640712 Z m -0.690805,4.491696 0.242172,0.636096 -0.675054,-0.08699 z m 2.532168,2.441383 -2.069302,-5.45142 -3.714564,4.711901 z m 2.231611,-14.860905 a 1.50015,1.50015 0 0 0 -1.271012,0.816672 l -2.723943,5.346039 a 1.50015,1.50015 0 0 0 1.439571,2.178055 l 5.817005,-0.403067 a 1.50015,1.50015 0 0 0 1.16867,-2.293646 l -3.093061,-4.942972 a 1.50015,1.50015 0 0 0 -1.33723,-0.701081 z m 0.198755,4.540158 0.361614,0.576628 -0.679052,0.04638 z m 2.959804,1.900471 -3.093061,-4.942972 -2.723943,5.34604 z M 44.730845,8.1427923 a 1.50015,1.50015 45 0 0 -1.087266,1.048942 l -1.628642,5.7747317 a 1.50015,1.50015 45 0 0 1.836828,1.855358 l 5.626597,-1.530164 a 1.50015,1.50015 45 0 0 0.698747,-2.47757 L 46.179155,8.5695218 a 1.50015,1.50015 45 0 0 -1.44831,-0.4267295 z m 1.080677,4.4141457 0.46716,0.495 -0.656956,0.177967 z m 3.273695,1.286525 -3.997955,-4.244568 -1.628642,5.774731 z M 45.459934,-0.74022404 a 1.50015,1.50015 0 0 0 -0.861735,1.2409018 L 44.127444,6.4821818 A 1.50015,1.50015 0 0 0 46.29094,7.943542 l 5.219964,-2.5984565 a 1.50015,1.50015 0 0 0 0.201971,-2.5662834 l -4.749209,-3.38304743 a 1.50015,1.50015 0 0 0 -1.503732,-0.13597871 z m 1.921069,4.11849944 0.554754,0.3943505 -0.609614,0.3027128 z M 50.842784,4.0014139 46.093575,0.6183664 45.62282,6.5998704 Z M 44.442024,-9.594794 a 1.50015,1.50015 0 0 0 -0.60309,1.3851744 l 0.705225,5.9584108 a 1.50015,1.50015 0 0 0 2.407022,1.0112034 l 4.61273,-3.5668923 A 1.50015,1.50015 0 0 0 51.261344,-7.3632732 L 45.94339,-9.7547916 a 1.50015,1.50015 0 0 0 -1.501366,0.1599976 z m 2.687636,3.6645816 0.621028,0.2785461 -0.538844,0.415826 z m 3.516831,-0.064195 -5.317954,-2.3915184 0.705224,5.9584108 z m -8.93026,-12.0862337 a 1.50015,1.50015 0 0 0 -0.321267,1.476215 l 1.854102,5.706339 a 1.50015,1.50015 0 0 0 2.558048,0.522187 l 3.828232,-4.398255 a 1.50015,1.50015 0 0 0 -0.795477,-2.448227 l -5.682334,-1.308085 a 1.50015,1.50015 0 0 0 -1.441304,0.449826 z m 3.350918,3.069835 0.663437,0.152038 -0.447366,0.512959 z m 3.436733,-0.749061 -5.682333,-1.308084 1.854102,5.706339 z M 37.387307,-25.87166 a 1.50015,1.50015 0 0 0 -0.0271,1.510527 l 2.931727,5.234976 a 1.50015,1.50015 0 0 0 2.61077,0.0131 l 2.896616,-5.060594 a 1.50015,1.50015 0 0 0 -1.257818,-2.245996 l -5.828344,-0.174381 a 1.50015,1.50015 0 0 0 -1.325853,0.722366 z m 3.885427,2.357118 0.68035,0.01969 -0.338697,0.59038 z m 3.224562,-1.405141 -5.828343,-0.174382 2.931727,5.234976 z M 31.62161,-32.668445 a 1.50015,1.50015 45 0 0 0.268111,1.486789 l 3.896689,4.562436 a 1.50015,1.50015 45 0 0 2.56316,-0.496485 l 1.853686,-5.528459 a 1.50015,1.50015 45 0 0 -1.671821,-1.957451 l -5.750374,0.966022 a 1.50015,1.50015 45 0 0 -1.159451,0.967148 z m 4.27062,1.553818 0.671118,-0.113423 -0.217012,0.645113 z m 2.888474,-2.007223 -5.750374,0.966022 3.896689,4.562436 z M 24.640712,-38.2098 a 1.50015,1.50015 0 0 0 0.553018,1.405915 l 4.711902,3.714563 a 1.50015,1.50015 0 0 0 2.41705,-0.986993 l 0.739519,-5.783866 a 1.50015,1.50015 0 0 0 -2.021577,-1.593684 l -5.451421,2.069303 a 1.50015,1.50015 0 0 0 -0.948491,1.174762 z m 4.491696,0.690805 0.636096,-0.242172 -0.08699,0.675054 z m 2.441383,-2.532168 -5.45142,2.069302 4.711901,3.714564 z m -14.860905,-2.231611 a 1.50015,1.50015 0 0 0 0.816672,1.271012 l 5.346039,2.723943 a 1.50015,1.50015 0 0 0 2.178055,-1.439571 l -0.403067,-5.817005 a 1.50015,1.50015 0 0 0 -2.293646,-1.16867 l -4.942972,3.093061 a 1.50015,1.50015 0 0 0 -0.701081,1.33723 z m 4.540158,-0.198755 0.576628,-0.361614 0.04638,0.679052 z m 1.900471,-2.959804 -4.942972,3.093061 5.34604,2.723943 z m -15.0107227,0.710488 a 1.50015,1.50015 0 0 0 1.048942,1.087266 l 5.7747317,1.628642 a 1.50015,1.50015 0 0 0 1.855358,-1.836828 l -1.530164,-5.626597 a 1.50015,1.50015 0 0 0 -2.47757,-0.698747 l -4.2445682,3.997954 a 1.50015,1.50015 0 0 0 -0.4267295,1.44831 z m 4.4141457,-1.080677 0.495,-0.46716 0.177967,0.656956 z m 1.286525,-3.273695 -4.244568,3.997955 5.774731,1.628642 z m -14.58368704,3.625283 a 1.50015,1.50015 0 0 0 1.2409018,0.861735 l 5.98150404,0.470755 A 1.50015,1.50015 0 0 0 7.943542,-46.29094 l -2.5984565,-5.219964 a 1.50015,1.50015 0 0 0 -2.5662834,-0.201971 l -3.38304743,4.749209 a 1.50015,1.50015 0 0 0 -0.13597871,1.503732 z m 4.11849944,-1.921069 0.3943505,-0.554754 0.3027128,0.609614 z m 0.6231385,-3.461781 -3.3830475,4.749209 5.981504,0.470755 z m -13.5962079,6.40076 a 1.50015,1.50015 0 0 0 1.3851744,0.60309 l 5.9584108,-0.705225 a 1.50015,1.50015 0 0 0 1.0112034,-2.407022 l -3.5668923,-4.61273 a 1.50015,1.50015 0 0 0 -2.5563755,0.302567 l -2.3915184,5.317954 a 1.50015,1.50015 0 0 0 0.1599976,1.501366 z m 3.6645816,-2.687636 0.2785461,-0.621028 0.415826,0.538844 z m -0.064195,-3.516831 -2.3915184,5.317954 5.9584108,-0.705224 z m -12.0862337,8.93026 a 1.50015,1.50015 0 0 0 1.476215,0.321267 l 5.706339,-1.854102 a 1.50015,1.50015 0 0 0 0.522187,-2.558048 l -4.398255,-3.828232 a 1.50015,1.50015 0 0 0 -2.448227,0.795477 l -1.308085,5.682334 a 1.50015,1.50015 0 0 0 0.449826,1.441304 z m 3.069835,-3.350918 0.152038,-0.663437 0.512959,0.447366 z m -0.749061,-3.436733 -1.308084,5.682333 5.706339,-1.854102 z m -10.111793,11.116575 a 1.50015,1.50015 0 0 0 1.510527,0.0271 l 5.234976,-2.931727 a 1.50015,1.50015 0 0 0 0.0131,-2.61077 l -5.060594,-2.896616 a 1.50015,1.50015 0 0 0 -2.245996,1.257818 l -0.174381,5.828344 a 1.50015,1.50015 0 0 0 0.722366,1.325853 z m 2.357118,-3.885427 0.01969,-0.68035 0.59038,0.338697 z m -1.405141,-3.224562 -0.174382,5.828343 5.234976,-2.931727 z m -7.748762,12.875686 a 1.50015,1.50015 45 0 0 1.486789,-0.268111 l 4.562436,-3.896689 a 1.50015,1.50015 45 0 0 -0.496485,-2.56316 l -5.528459,-1.853686 a 1.50015,1.50015 45 0 0 -1.957451,1.671821 l 0.966022,5.750374 a 1.50015,1.50015 45 0 0 0.967148,1.159451 z m 1.553818,-4.27062 -0.113423,-0.671118 0.645113,0.217012 z m -2.007223,-2.888474 0.966022,5.750374 4.562436,-3.896689 z m -5.08795,14.139992 a 1.50015,1.50015 0 0 0 1.405915,-0.553018 l 3.714563,-4.711902 a 1.50015,1.50015 0 0 0 -0.986993,-2.41705 l -5.783866,-0.739519 a 1.50015,1.50015 0 0 0 -1.593684,2.021577 l 2.069303,5.451421 a 1.50015,1.50015 0 0 0 1.174762,0.948491 z m 0.690805,-4.491696 -0.242172,-0.636096 0.675054,0.08699 z m -2.532168,-2.441383 2.069302,5.45142 3.714564,-4.711901 z m -2.231611,14.860905 a 1.50015,1.50015 0 0 0 1.271012,-0.816672 l 2.723943,-5.346039 a 1.50015,1.50015 0 0 0 -1.439571,-2.178055 l -5.817005,0.403067 a 1.50015,1.50015 0 0 0 -1.16867,2.293646 l 3.093061,4.942972 a 1.50015,1.50015 0 0 0 1.33723,0.701081 z m -0.198755,-4.540158 -0.361614,-0.576628 0.679052,-0.04638 z m -2.959804,-1.900471 3.093061,4.942972 2.723943,-5.34604 z m 0.710488,15.0107227 a 1.50015,1.50015 0 0 0 1.087266,-1.048942 l 1.628642,-5.7747317 a 1.50015,1.50015 0 0 0 -1.836828,-1.855358 l -5.626597,1.530164 a 1.50015,1.50015 0 0 0 -0.698747,2.47757 l 3.997954,4.2445682 a 1.50015,1.50015 0 0 0 1.44831,0.4267295 z m -1.080677,-4.4141457 -0.46716,-0.495 0.656956,-0.177967 z m -3.273695,-1.286525 3.997955,4.244568 1.628642,-5.774731 z m 3.625283,14.58368704 a 1.50015,1.50015 0 0 0 0.861735,-1.2409018 l 0.470755,-5.98150404 A 1.50015,1.50015 0 0 0 -46.29094,-7.943542 l -5.219964,2.5984565 a 1.50015,1.50015 0 0 0 -0.201971,2.5662834 l 4.749209,3.38304743 a 1.50015,1.50015 0 0 0 1.503732,0.13597871 z m -1.921069,-4.11849944 -0.554754,-0.3943505 0.609614,-0.3027128 z m -3.461781,-0.6231385 4.749209,3.3830475 0.470755,-5.981504 z m 6.40076,13.5962079 a 1.50015,1.50015 0 0 0 0.60309,-1.3851744 l -0.705225,-5.9584108 a 1.50015,1.50015 0 0 0 -2.407022,-1.0112034 l -4.61273,3.5668923 a 1.50015,1.50015 0 0 0 0.302567,2.5563755 l 5.317954,2.3915184 a 1.50015,1.50015 0 0 0 1.501366,-0.1599976 z m -2.687636,-3.6645816 -0.621028,-0.2785461 0.538844,-0.415826 z m -3.516831,0.064195 5.317954,2.3915184 -0.705224,-5.9584108 z m 8.93026,12.0862337 a 1.50015,1.50015 0 0 0 0.321267,-1.476215 l -1.854102,-5.706339 A 1.50015,1.50015 0 0 0 -45.807114,10.3759 l -3.828232,4.398255 a 1.50015,1.50015 0 0 0 0.795477,2.448227 l 5.682334,1.308085 a 1.50015,1.50015 0 0 0 1.441304,-0.449826 z m -3.350918,-3.069835 -0.663437,-0.152038 0.447366,-0.512959 z m -3.436733,0.749061 5.682333,1.308084 -1.854102,-5.706339 z m 11.116575,10.111793 a 1.50015,1.50015 45 0 0 0.0271,-1.510527 l -2.931727,-5.234976 a 1.50015,1.50015 45 0 0 -2.61077,-0.0131 l -2.896616,5.060594 a 1.50015,1.50015 45 0 0 1.257818,2.245996 l 5.828344,0.174381 a 1.50015,1.50015 45 0 0 1.325853,-0.722366 z m -3.885427,-2.357118 -0.68035,-0.01969 0.338697,-0.59038 z m -3.224562,1.405141 5.828343,0.174382 -2.931727,-5.234976 z m 12.875686,7.748762 a 1.50015,1.50015 0 0 0 -0.268111,-1.486789 L -35.78641,26.61922 a 1.50015,1.50015 0 0 0 -2.56316,0.496485 l -1.853686,5.528459 a 1.50015,1.50015 0 0 0 1.671821,1.957451 l 5.750374,-0.966022 a 1.50015,1.50015 0 0 0 1.159451,-0.967148 z m -4.27062,-1.553818 -0.671118,0.113423 0.217012,-0.645113 z m -2.888474,2.007223 5.750374,-0.966022 -3.896689,-4.562436 z m 14.139992,5.08795 a 1.50015,1.50015 0 0 0 -0.553018,-1.405915 l -4.711902,-3.714563 a 1.50015,1.50015 0 0 0 -2.41705,0.986993 l -0.739519,5.783866 a 1.50015,1.50015 0 0 0 2.021577,1.593684 l 5.451421,-2.069303 a 1.50015,1.50015 0 0 0 0.948491,-1.174762 z m -4.491696,-0.690805 -0.636096,0.242172 0.08699,-0.675054 z m -2.441383,2.532168 5.45142,-2.069302 -4.711901,-3.714564 z m 14.860905,2.231611 a 1.50015,1.50015 0 0 0 -0.816672,-1.271012 l -5.346039,-2.723943 a 1.50015,1.50015 0 0 0 -2.178055,1.439571 l 0.403067,5.817005 a 1.50015,1.50015 0 0 0 2.293646,1.16867 l 4.942972,-3.093061 a 1.50015,1.50015 0 0 0 0.701081,-1.33723 z m -4.540158,0.198755 -0.576628,0.361614 -0.04638,-0.679052 z m -1.900471,2.959804 4.942972,-3.093061 -5.34604,-2.723943 z m 15.0107227,-0.710488 a 1.50015,1.50015 0 0 0 -1.048942,-1.087266 l -5.7747317,-1.628642 a 1.50015,1.50015 0 0 0 -1.855358,1.836828 l 1.530164,5.626597 a 1.50015,1.50015 0 0 0 2.47757,0.698747 l 4.2445682,-3.997954 a 1.50015,1.50015 0 0 0 0.4267295,-1.44831 z m -4.4141457,1.080677 -0.495,0.46716 -0.177967,-0.656956 z m -1.286525,3.273695 4.244568,-3.997955 -5.774731,-1.628642 z M 0.74022404,45.459934 a 1.50015,1.50015 0 0 0 -1.2409018,-0.861735 L -6.4821818,44.127444 A 1.50015,1.50015 0 0 0 -7.943542,46.29094 l 2.5984565,5.219964 a 1.50015,1.50015 0 0 0 2.5662834,0.201971 l 3.38304743,-4.749209 a 1.50015,1.50015 0 0 0 0.13597871,-1.503732 z m -4.11849944,1.921069 -0.3943505,0.554754 -0.3027128,-0.609614 z m -0.6231385,3.461781 3.3830475,-4.749209 -5.981504,-0.470755 z M 9.594794,44.442024 a 1.50015,1.50015 0 0 0 -1.3851744,-0.60309 l -5.9584108,0.705225 a 1.50015,1.50015 0 0 0 -1.0112034,2.407022 l 3.5668923,4.61273 A 1.50015,1.50015 0 0 0 7.3632732,51.261344 L 9.7547916,45.94339 A 1.50015,1.50015 0 0 0 9.594794,44.442024 Z M 5.9302124,47.12966 5.6516663,47.750688 5.2358403,47.211844 Z m 0.064195,3.516831 2.3915184,-5.317954 -5.9584108,0.705224 z m 12.0862337,-8.93026 a 1.50015,1.50015 0 0 0 -1.476215,-0.321267 l -5.706339,1.854102 A 1.50015,1.50015 0 0 0 10.3759,45.807114 l 4.398255,3.828232 a 1.50015,1.50015 0 0 0 2.448227,-0.795477 l 1.308085,-5.682334 a 1.50015,1.50015 0 0 0 -0.449826,-1.441304 z m -3.069835,3.350918 -0.152038,0.663437 -0.512959,-0.447366 z m 2.057145,-2.2456 -5.706339,1.854102 4.398255,3.828231 z m 28.107234,-57.499856 c -8.090127,-24.898849 -34.954643,-38.587004 -59.853492,-30.496878 -24.898849,8.090127 -38.587004,34.954643 -30.496878,59.853492 8.090127,24.898849 34.954643,38.587004 59.853492,30.496878 24.898849,-8.090127 38.587004,-34.954643 30.496878,-59.853492 z m -8.559509,2.781153 c 6.587081,20.2729506 -4.445571,41.925749 -24.718522,48.51283 -20.2729506,6.587081 -41.925749,-4.445571 -48.51283,-24.718522 -6.587081,-20.2729506 4.445571,-41.925749 24.718522,-48.51283 20.2729506,-6.587081 41.925749,4.445571 48.51283,24.718522 z" transform="rotate(-71.999999)"/>
  </g>
</svg>