<svg viewBox="0 0 3381 934" xmlns="http://www.w3.org/2000/svg" fill-rule="evenodd" clip-rule="evenodd" stroke-linecap="round" stroke-linejoin="round" stroke-miterlimit="1.5"><ellipse cx="839.5" cy="747.691" rx="463.5" ry="412.309" fill="#dfeae9" transform="matrix(1 0 0 1.13218 838.437 -379.365)"/><path d="M1489.794 566.499c-90.869 87.298-72.24 223.558 26.417 233.148 44.991 4.37 113.5-54.167 163-54 48.282.163 88.572 56.6 134 55 133.17-4.69 149.14-149.872 38-247-52.509-45.89-115.75-149.702-176-148-111.236 3.142-134.352 111.794-185.417 160.852z" fill="#cac0b2" stroke="#000" stroke-width="18.75"/><path d="M1404.316 355.645c41.608 0 75.388 37.293 75.388 83.228 0 45.934-33.78 61.792-75.388 61.792-41.608 0-75.387-15.858-75.387-61.792 0-45.935 33.78-83.228 75.387-83.228z" fill="#f9efa8" stroke="#000" stroke-width="18.744"/><path d="M1967.496 394.645c41.608 0 76.49 15.858 76.49 61.793 0 45.934-33.78 83.228-75.387 83.228-41.608 0-75.388-37.294-75.388-83.228 0-45.935 32.678-61.793 74.285-61.793z" fill="#58ebe4" stroke="#000" stroke-width="18.744"/><path d="M1802.21 186.567c50.225 0 91 45.017 91 100.465s-40.775 80.612-91 80.612-91-25.164-91-80.612c0-55.448 40.775-100.465 91-100.465z" fill="#58ebb5" stroke="#000" stroke-width="18.753"/><path d="M1561.403 146.177c55.36 0 100.303 49.619 100.303 110.734 0 61.116-44.944 110.734-100.303 110.734-55.359 0-81.699-34.866-81.699-95.982 0-61.115 26.34-125.486 81.7-125.486z" fill="#f2d886" stroke="#000" stroke-width="18.745"/><ellipse cx="574.048" cy="513.5" rx="12.942" ry="15.5" fill="#f9efa8" stroke="#000" stroke-width="18.75" transform="translate(830.27 -204.353)"/><ellipse cx="574.048" cy="513.5" rx="12.942" ry="15.5" fill="#f2d886" stroke="#000" stroke-width="14.39" transform="matrix(1 0 0 1.54839 996.658 -710.897)"/><ellipse cx="574.048" cy="513.5" rx="12.942" ry="15.5" fill="#58ebe4" stroke="#000" stroke-width="18.75" transform="translate(1407.494 -173.353)"/><ellipse cx="574.048" cy="513.5" rx="12.942" ry="15.5" fill="#58ebb5" stroke="#000" stroke-width="13.4" transform="matrix(.9932 .11641 -.19881 1.69625 1380.099 -803.317)"/></svg>