<?xml version="1.0" encoding="UTF-8" standalone="no"?><!DOCTYPE svg PUBLIC "-//W3C//DTD SVG 1.1//EN" "http://www.w3.org/Graphics/SVG/1.1/DTD/svg11.dtd"><svg width="100%" height="100%" viewBox="0 0 495 182" version="1.1" xmlns="http://www.w3.org/2000/svg" xmlns:xlink="http://www.w3.org/1999/xlink" xml:space="preserve" xmlns:serif="http://www.serif.com/" style="fill-rule:evenodd;clip-rule:evenodd;stroke-linecap:round;stroke-linejoin:round;stroke-miterlimit:1.5;"><g transform="matrix(0.439317,0,0,0.439317,-317.471,-151.511)"><text x="770.357px" y="505.336px" style="font-family:'ArialMT', 'Arial', sans-serif;font-size:29.591px;fill:#62a6c8;">t</text><text x="778.579px" y="505.336px" style="font-family:'Apple-Chancery', 'Apple Chancery', cursive;font-size:29.591px;fill:#62a6c8;">0</text></g><g transform="matrix(0.440329,0,0,0.440329,-249.594,-43.2895)"><text x="770.357px" y="505.336px" style="font-family:'ArialMT', 'Arial', sans-serif;font-size:29.523px;fill:#62a6c8;">t</text><text x="778.56px" y="505.336px" style="font-family:'Apple-Chancery', 'Apple Chancery', cursive;font-size:29.523px;fill:#62a6c8;">1</text></g><ellipse cx="26.133" cy="42.661" rx="10.48" ry="10.39" style="fill:#ebebeb;stroke:#000;stroke-width:1.5px;"/><path d="M10.435,125.527l0,-33.235l90.172,3.547l0,-80.792l31.844,0l3.262,111.22l-125.278,-0.74Z" style="fill:#fff8d3;stroke:#a8a8a8;stroke-width:1.5px;"/><g transform="matrix(0.439317,0,0,0.439317,-152.261,-151.511)"><text x="770.357px" y="505.336px" style="font-family:'ArialMT', 'Arial', sans-serif;font-size:29.591px;fill:#62a6c8;">t</text><text x="778.579px" y="505.336px" style="font-family:'Apple-Chancery', 'Apple Chancery', cursive;font-size:29.591px;fill:#62a6c8;">0</text></g><ellipse cx="191.344" cy="42.661" rx="10.48" ry="10.39" style="fill:#ebebeb;stroke:#000;stroke-width:1.5px;"/><path d="M175.645,125.527l0,-33.235l90.172,3.547l0,-80.792l31.845,0l3.262,111.22l-125.279,-0.74Z" style="fill:#fff8d3;stroke:#a8a8a8;stroke-width:1.5px;"/><g transform="matrix(0.439317,0,0,0.439317,26.0106,-152.323)"><text x="770.357px" y="505.336px" style="font-family:'ArialMT', 'Arial', sans-serif;font-size:29.591px;fill:#62a6c8;">t</text><text x="778.579px" y="505.336px" style="font-family:'Apple-Chancery', 'Apple Chancery', cursive;font-size:29.591px;fill:#62a6c8;">0</text></g><ellipse cx="369.615" cy="41.849" rx="10.48" ry="10.39" style="fill:#ebebeb;stroke:#000;stroke-width:1.5px;"/><path d="M353.917,124.715l0,-33.235l90.171,3.546l0,-80.792l31.845,0l3.262,111.221l-125.278,-0.74Z" style="fill:#fff8d3;stroke:#a8a8a8;stroke-width:1.5px;"/><g transform="matrix(0.440329,0,0,0.440329,-117.451,-113.422)"><text x="770.357px" y="505.336px" style="font-family:'ArialMT', 'Arial', sans-serif;font-size:29.523px;fill:#62a6c8;">t</text><text x="778.56px" y="505.336px" style="font-family:'Apple-Chancery', 'Apple Chancery', cursive;font-size:29.523px;fill:#62a6c8;">1</text></g><g transform="matrix(0.440329,0,0,0.440329,89.6883,-139.646)"><text x="770.357px" y="505.336px" style="font-family:'ArialMT', 'Arial', sans-serif;font-size:29.523px;fill:#62a6c8;">t</text><text x="778.56px" y="505.336px" style="font-family:'Apple-Chancery', 'Apple Chancery', cursive;font-size:29.523px;fill:#62a6c8;">1</text></g><path d="M26.133,42.661l69.529,111.556" style="fill:none;stroke:#a8a8a8;stroke-width:1.5px;stroke-dasharray:1.5,4.5,0,0;"/><path d="M191.344,42.661l26.008,40.153" style="fill:none;stroke:#a8a8a8;stroke-width:1.5px;stroke-dasharray:1.5,4.5,0,0;"/><ellipse cx="216.538" cy="82.957" rx="10.48" ry="10.39" style="fill:#ebebeb;stroke:#000;stroke-width:1.5px;"/><path d="M369.615,41.849l26.018,40.965" style="fill:none;stroke:#a8a8a8;stroke-width:1.5px;stroke-dasharray:1.5,4.5,0,0;"/><path d="M434.944,57.861l-39.311,25.096" style="fill:none;stroke:#a8a8a8;stroke-width:1.5px;stroke-dasharray:1.5,4.5,0,0;"/><ellipse cx="394.82" cy="82.957" rx="10.48" ry="10.39" style="fill:#ebebeb;stroke:#000;stroke-width:1.5px;stroke-dasharray:1.5,4.5,0,0;"/><ellipse cx="95.662" cy="154.217" rx="10.48" ry="10.39" style="fill:#ebebeb;stroke:#000;stroke-width:1.5px;"/><ellipse cx="434.944" cy="57.861" rx="10.48" ry="10.39" style="fill:#ebebeb;stroke:#000;stroke-width:1.5px;"/><text x="204.695px" y="147.277px" style="font-family:'Arial-BoldMT', 'Arial', sans-serif;font-weight:700;font-size:13px;fill:#44a64a;">One substep</text><text x="-0.418px" y="148.48px" style="font-family:'Arial-BoldMT', 'Arial', sans-serif;font-weight:700;font-size:13px;fill:#c83737;">No CCD</text><text x="375.879px" y="147.277px" style="font-family:'Arial-BoldMT', 'Arial', sans-serif;font-weight:700;font-size:13px;fill:#44a64a;">T<tspan x="382.855px 392.967px " y="147.277px 147.277px ">wo</tspan> substeps</text></svg>